<?xml version="1.0" encoding="UTF-8"?>
<!DOCTYPE svg PUBLIC "-//W3C//DTD SVG 1.1//EN" "http://www.w3.org/Graphics/SVG/1.1/DTD/svg11.dtd">
<!-- Creator: CorelDRAW -->
<svg xmlns="http://www.w3.org/2000/svg" xml:space="preserve" width="32.7512mm" height="32.7513mm" version="1.1" style="shape-rendering:geometricPrecision; text-rendering:geometricPrecision; image-rendering:optimizeQuality; fill-rule:evenodd; clip-rule:evenodd"
viewBox="0 0 10859.99 10860.02"
 xmlns:xlink="http://www.w3.org/1999/xlink"
 xmlns:xodm="http://www.corel.com/coreldraw/odm/2003">
 <defs>
  <style type="text/css">
   <![CDATA[
    .fil3 {fill:none}
    .fil2 {fill:#29004D}
    .fil1 {fill:#5A2B7F}
    .fil8 {fill:#D33D87}
    .fil12 {fill:#EBBF11}
    .fil13 {fill:#EBC117}
    .fil5 {fill:#EE589F}
    .fil9 {fill:#F5D03D}
    .fil11 {fill:#FCEE4C}
    .fil6 {fill:#FF72B7}
    .fil4 {fill:#FFFDF4}
    .fil10 {fill:#FFFF76}
    .fil0 {fill:white}
    .fil7 {fill:#00112E;fill-rule:nonzero}
   ]]>
  </style>
   <clipPath id="id0">
    <path d="M5429.99 0c2998.91,0 5429.99,2431.12 5429.99,5429.99 0,2998.91 -2431.09,5430.03 -5429.99,5430.03 -2998.91,0 -5429.99,-2431.12 -5429.99,-5430.03 0,-2998.87 2431.09,-5429.99 5429.99,-5429.99z"/>
   </clipPath>
   <clipPath id="id1">
    <path d="M6200.81 3552.5c0,0 471.59,-429.28 0.3,-2035.93l1864.63 289.58c0,0 -925.3,1271.92 -607.54,1934.04l-1257.39 -187.68z"/>
   </clipPath>
   <clipPath id="id2">
    <path d="M6321.48 4262.56l-291.24 1875.31c0,0 -217.72,1154 -641.23,1273.37 -423.51,119.37 -387.96,658.31 -92.02,789.09l1636.5 266.63c0,0 576.27,-290.54 167.69,-738.15 -408.62,-447.61 -252.67,-1446.43 -252.67,-1446.43l249.46 -1905.75 -776.49 -114.07z"/>
   </clipPath>
   <clipPath id="id3">
    <path d="M7089.31 875.33l324.53 50.4 -120.93 778.87 -324.56 -50.4 120.96 -778.87z"/>
   </clipPath>
   <clipPath id="id4">
    <path d="M6776.48 1391.72l50.37 -324.56 778.87 120.96 -50.37 324.53 -778.87 -120.93z"/>
   </clipPath>
   <clipPath id="id5">
    <path d="M3018.17 6011.7c0,0 319.79,-398.84 -614.17,-1134.07l1864.1 -470.36c0,0 -497.78,1021.9 4.77,1283.02l-1254.71 321.41z"/>
   </clipPath>
   <clipPath id="id6">
    <path d="M3034.02 4680.83l-82.37 -326.38 586.15 -147.89 82.37 326.38 -586.15 147.89z"/>
   </clipPath>
   <clipPath id="id7">
    <path d="M3453.88 6155.95c167.85,665.24 564.3,1720.29 124.84,2313.04 -377.52,509.26 99.01,830.5 99.01,830.5l1717.08 -433.26c0,0 314.68,-452.89 -317.07,-782.35 -724.72,-387.99 -878.48,-1371.13 -1062.65,-2100.99l-561.22 173.06z"/>
   </clipPath>
 </defs>
 <g id="Layer_x0020_1">
  <metadata id="CorelCorpID_0Corel-Layer"/>
  <path class="fil1" d="M5429.99 0c2998.91,0 5429.99,2431.12 5429.99,5429.99 0,2998.91 -2431.09,5430.03 -5429.99,5430.03 -2998.91,0 -5429.99,-2431.12 -5429.99,-5430.03 0,-2998.87 2431.09,-5429.99 5429.99,-5429.99z"/>
  <g style="clip-path:url(#id0)">
   <g id="_2036398986192">
    <polygon id="_1" class="fil2" points="3618.05,9705.13 8585.21,16166.07 12793.2,13527.2 16482.64,8752.43 6848.7,7122.53 "/>
   </g>
  </g>
  <path class="fil3" d="M5429.99 0c2998.91,0 5429.99,2431.12 5429.99,5429.99 0,2998.91 -2431.09,5430.03 -5429.99,5430.03 -2998.91,0 -5429.99,-2431.12 -5429.99,-5430.03 0,-2998.87 2431.09,-5429.99 5429.99,-5429.99z"/>
  <path class="fil4" d="M4624.4 7275.96c0,0 208.57,-349.33 140.69,-713.18l302.58 -31.5c0,0 -36.38,679.2 -443.27,744.69z"/>
  <path class="fil4" d="M5048.8 6926.06c0,0 185.69,-197.33 193.65,-443.7l201.34 22.85c0,0 -120.96,436.54 -394.99,420.85z"/>
  <path class="fil4" d="M2375.18 5119.63c0,0 -284.64,-207.28 -354.11,-519.97l-251.58 77.66c0,0 259.57,528.29 605.68,442.31z"/>
  <path class="fil5" d="M6200.81 3552.5c0,0 471.59,-429.28 0.3,-2035.93l1864.63 289.58c0,0 -925.3,1271.92 -607.54,1934.04l-1257.39 -187.68z"/>
  <g style="clip-path:url(#id1)">
   <g id="_2036398987920">
    <rect class="fil6" transform="matrix(0.902027 0.140084 -0.185064 1.19167 7329.07 416.906)" width="1258.12" height="7333.72"/>
    <polygon class="fil7" points="9663.81,2542.01 11386.52,2809.57 11228.72,3825.69 9505.97,3558.17 "/>
   </g>
  </g>
  <path class="fil3" d="M6200.81 3552.5c0,0 471.59,-429.28 0.3,-2035.93l1864.63 289.58c0,0 -925.3,1271.92 -607.54,1934.04l-1257.39 -187.68z"/>
  <rect class="fil8" transform="matrix(1.19167 0.185064 -0.185064 1.19167 5997.83 3575.23)" width="1373.88" height="307.42"/>
  <rect class="fil6" transform="matrix(1.39846 0.217178 0.110468 -0.711324 5769.24 4110.36)" width="1373.88" height="307.42"/>
  <rect class="fil8" transform="matrix(1.13265 0.175899 0.179216 -1.15401 6107.18 3138.5)" width="1373.88" height="307.42" rx="153.73" ry="153.73"/>
  <path class="fil5" d="M6321.48 4262.56l-291.24 1875.31c0,0 -217.72,1154 -641.23,1273.37 -423.51,119.37 -387.96,658.31 -92.02,789.09l1636.5 266.63c0,0 576.27,-290.54 167.69,-738.15 -408.62,-447.61 -252.67,-1446.43 -252.67,-1446.43l249.46 -1905.75 -776.49 -114.07z"/>
  <g style="clip-path:url(#id2)">
   <g id="_2036398993056">
    <rect class="fil6" transform="matrix(0.902027 0.140084 -0.185064 1.19167 7329.07 416.906)" width="1258.12" height="7333.72"/>
    <rect class="fil4" transform="matrix(1.19167 0.185064 -0.185064 1.19167 5372.72 7225.1)" width="1434.36" height="89.26"/>
   </g>
  </g>
  <path class="fil3" d="M6321.48 4262.56l-291.24 1875.31c0,0 -217.72,1154 -641.23,1273.37 -423.51,119.37 -387.96,658.31 -92.02,789.09l1636.5 266.63c0,0 576.27,-290.54 167.69,-738.15 -408.62,-447.61 -252.67,-1446.43 -252.67,-1446.43l249.46 -1905.75 -776.49 -114.07z"/>
  <rect class="fil8" transform="matrix(1.09759 0.170454 -0.185064 1.19167 5030.42 8125.85)" width="1955.59" height="578.96"/>
  <polygon class="fil5" points="7089.31,875.33 7413.83,925.73 7292.9,1704.61 6968.34,1654.21 "/>
  <g style="clip-path:url(#id3)">
   <g id="_2036398991808">
    <rect class="fil6" transform="matrix(0.902027 0.140084 -0.0338285 0.217829 7329.07 416.906)" width="1258.12" height="7333.72"/>
   </g>
  </g>
  <polygon class="fil3" points="7089.31,875.33 7413.83,925.73 7292.9,1704.61 6968.34,1654.21 "/>
  <polygon class="fil5" points="6776.48,1391.72 6826.85,1067.16 7605.73,1188.12 7555.36,1512.65 "/>
  <g style="clip-path:url(#id4)">
   <g id="_2036398996944">
    <rect class="fil6" transform="matrix(0.902027 0.140084 -0.031924 0.205565 7329.07 416.906)" width="1258.12" height="7333.72"/>
   </g>
  </g>
  <polygon class="fil3" points="6776.48,1391.72 6826.85,1067.16 7605.73,1188.12 7555.36,1512.65 "/>
  <rect class="fil4" transform="matrix(0.565319 0.0877932 0.0366895 -0.236251 6320.26 4270.3)" width="1373.88" height="307.42"/>
  <rect class="fil4" transform="matrix(0.913552 0.141873 0.0346734 -0.223269 6194.57 3605.81)" width="1373.88" height="307.42"/>
  <rect class="fil4" transform="matrix(0.565319 0.0877932 0.0366895 -0.236251 6260.62 3119.24)" width="1373.88" height="307.42" rx="153.73" ry="153.73"/>
  <rect class="fil4" transform="matrix(0.771648 0.119836 0.036949 -0.237922 5104.67 8693.28)" width="1373.88" height="307.42"/>
  <ellipse class="fil4" transform="matrix(1.19167 0.185064 -0.185064 1.19167 5559.22 7970.06)" rx="187.81" ry="71.52"/>
  <rect class="fil4" transform="matrix(0.0809612 0.0125732 0.0183447 -0.118126 6836.17 1346.43)" width="1373.88" height="307.42"/>
  <path class="fil4" d="M7922.99 2541.11c0,0 295.94,-215.53 368.2,-540.66l261.56 80.74c0,0 -269.85,549.31 -629.76,459.92z"/>
  <path class="fil9" d="M3018.17 6011.7c0,0 319.79,-398.84 -614.17,-1134.07l1864.1 -470.36c0,0 -497.78,1021.9 4.77,1283.02l-1254.71 321.41z"/>
  <g style="clip-path:url(#id5)">
   <g id="_2036398999584">
    <rect class="fil10" transform="matrix(0.906411 -0.228709 0.358182 1.41953 3234.83 4124.45)" width="1251.06" height="3987.24"/>
   </g>
  </g>
  <path class="fil3" d="M3018.17 6011.7c0,0 319.79,-398.84 -614.17,-1134.07l1864.1 -470.36c0,0 -497.78,1021.9 4.77,1283.02l-1254.71 321.41z"/>
  <rect class="fil11" transform="matrix(1.2776 -0.322369 -0.135076 -0.535328 2817.03 6285.19)" width="1373.88" height="307.42"/>
  <rect class="fil12" transform="matrix(1.12204 -0.283118 -0.166492 -0.659835 2820.74 5849.42)" width="1373.88" height="307.42" rx="153.73" ry="153.73"/>
  <rect class="fil11" transform="matrix(1.03991 -0.262393 0.141895 0.562355 3535.88 9379.55)" width="1955.59" height="578.96"/>
  <polygon class="fil11" points="3034.02,4680.83 2951.65,4354.45 3537.81,4206.56 3620.17,4532.94 "/>
  <g style="clip-path:url(#id6)">
   <g id="_2036398999392">
    <rect class="fil9" transform="matrix(0.906411 -0.228709 0.358182 1.41953 3234.83 4124.45)" width="1251.06" height="3987.24"/>
   </g>
  </g>
  <polygon class="fil3" points="3034.02,4680.83 2951.65,4354.45 3537.81,4206.56 3620.17,4532.94 "/>
  <path class="fil9" d="M3453.88 6155.95c167.85,665.24 564.3,1720.29 124.84,2313.04 -377.52,509.26 99.01,830.5 99.01,830.5l1717.08 -433.26c0,0 314.68,-452.89 -317.07,-782.35 -724.72,-387.99 -878.48,-1371.13 -1062.65,-2100.99l-561.22 173.06z"/>
  <g style="clip-path:url(#id7)">
   <g id="_2036398998912">
    <rect class="fil10" transform="matrix(0.906411 -0.228709 0.358182 1.41953 3234.83 4124.45)" width="1251.06" height="3987.24"/>
   </g>
  </g>
  <path class="fil3" d="M3453.88 6155.95c167.85,665.24 564.3,1720.29 124.84,2313.04 -377.52,509.26 99.01,830.5 99.01,830.5l1717.08 -433.26c0,0 314.68,-452.89 -317.07,-782.35 -724.72,-387.99 -878.48,-1371.13 -1062.65,-2100.99l-561.22 173.06z"/>
  <rect class="fil13" transform="matrix(0.891131 -0.224854 0.0237552 0.0941459 3662.62 9289.59)" width="1955.59" height="578.96"/>
  <rect class="fil4" transform="matrix(0.290874 -0.0733944 0.0237552 0.0941459 3446.25 6126.41)" width="1955.59" height="578.96"/>
  <rect class="fil4" transform="matrix(0.641576 -0.161885 0.0237552 0.0941459 3015.92 6001.58)" width="1955.59" height="578.96"/>
  <rect class="fil4" transform="matrix(0.300257 -0.075762 0.0165548 0.0656094 3032.38 4678.66)" width="1955.59" height="578.96"/>
  <rect class="fil4" transform="matrix(0.267229 -0.0674281 -0.0355052 -0.140713 2898.94 5753.13)" width="1373.88" height="307.42" rx="153.73" ry="153.73"/>
  <ellipse class="fil4" transform="matrix(1.41953 -0.358182 0.358182 1.41953 3983.9 8991.83)" rx="187.81" ry="71.52"/>
  <rect class="fil4" transform="matrix(0.182572 -0.0460672 -0.0355052 -0.140713 3280.06 4545.12)" width="1373.88" height="307.42"/>
  <rect class="fil4" transform="matrix(0.431643 -0.108914 -0.035737 -0.141632 3723.55 9596.8)" width="1373.88" height="307.42"/>
 </g>
</svg>
