<?xml version="1.0" encoding="UTF-8"?>
<!DOCTYPE svg PUBLIC "-//W3C//DTD SVG 1.1//EN" "http://www.w3.org/Graphics/SVG/1.1/DTD/svg11.dtd">
<!-- Creator: CorelDRAW -->
<svg xmlns="http://www.w3.org/2000/svg" xml:space="preserve" width="4.8539mm" height="8.4788mm" version="1.1" style="shape-rendering:geometricPrecision; text-rendering:geometricPrecision; image-rendering:optimizeQuality; fill-rule:evenodd; clip-rule:evenodd"
viewBox="0 0 325.88 569.24"
 xmlns:xlink="http://www.w3.org/1999/xlink"
 xmlns:xodm="http://www.corel.com/coreldraw/odm/2003">
 <defs>
  <style type="text/css">
   <![CDATA[
    .fil4 {fill:none}
    .fil1 {fill:#EE589F}
    .fil5 {fill:#FF72B7}
    .fil2 {fill:#FF82BE}
    .fil3 {fill:#FFABD4}
   ]]>
  </style>
   <clipPath id="id0">
    <path d="M215.01 147.21l-19.89 50.12 -64.19 0 -17.8 -49.98 49.63 -59.28 52.25 59.14z"/>
   </clipPath>
   <clipPath id="id1">
    <path d="M195.12 197.09l-64.26 0 -36.19 293.66 67.81 78.5 74 -78.73 -41.36 -293.43z"/>
   </clipPath>
 </defs>
 <g id="Layer_x0020_1">
  <metadata id="CorelCorpID_0Corel-Layer"/>
  <polygon class="fil1" points="325.88,54.25 286.31,0 169.07,82.8 239.25,163.97 "/>
  <polygon class="fil2" points="215.01,147.21 195.12,197.33 130.93,197.33 113.13,147.35 162.76,88.06 "/>
  <g style="clip-path:url(#id0)">
   <g id="_1480865510704">
    <rect class="fil3" x="10.31" y="81.82" width="152.47" height="130.66"/>
   </g>
  </g>
  <polygon class="fil4" points="215.01,147.21 195.12,197.33 130.93,197.33 113.13,147.35 162.76,88.06 "/>
  <polygon class="fil1" points="195.12,197.09 130.86,197.09 94.67,490.75 162.48,569.24 236.48,490.52 "/>
  <g style="clip-path:url(#id1)">
   <g id="_1480865517088">
    <rect class="fil5" x="10.31" y="176.25" width="152.47" height="404.71"/>
   </g>
  </g>
  <polygon class="fil4" points="195.12,197.09 130.86,197.09 94.67,490.75 162.48,569.24 236.48,490.52 "/>
  <polygon class="fil1" points="-0,54.25 39.58,0 156.81,82.8 86.63,163.97 "/>
 </g>
</svg>
