<?xml version="1.0" encoding="UTF-8"?>
<!DOCTYPE svg PUBLIC "-//W3C//DTD SVG 1.1//EN" "http://www.w3.org/Graphics/SVG/1.1/DTD/svg11.dtd">
<!-- Creator: CorelDRAW -->
<svg xmlns="http://www.w3.org/2000/svg" xml:space="preserve" width="32.7512mm" height="32.7512mm" version="1.1" style="shape-rendering:geometricPrecision; text-rendering:geometricPrecision; image-rendering:optimizeQuality; fill-rule:evenodd; clip-rule:evenodd"
viewBox="0 0 10859.99 10859.99"
 xmlns:xlink="http://www.w3.org/1999/xlink"
 xmlns:xodm="http://www.corel.com/coreldraw/odm/2003">
 <defs>
  <style type="text/css">
   <![CDATA[
    .fil5 {fill:none}
    .fil10 {fill:#102442}
    .fil9 {fill:#3C4B6D}
    .fil6 {fill:#D33D87}
    .fil3 {fill:#EE589F}
    .fil2 {fill:#FACB0F}
    .fil1 {fill:#FCEE4C}
    .fil7 {fill:#FF72B7}
    .fil8 {fill:#FFABD4}
    .fil4 {fill:#FFFDF4}
    .fil0 {fill:white}
   ]]>
  </style>
   <clipPath id="id0">
    <path d="M5429.99 0c2998.91,0 5429.99,2431.09 5429.99,5429.99 0,2998.91 -2431.09,5429.99 -5429.99,5429.99 -2998.91,0 -5429.99,-2431.09 -5429.99,-5429.99 0,-2998.91 2431.09,-5429.99 5429.99,-5429.99z"/>
   </clipPath>
    <clipPath id="id1">
     <path d="M1763.27 2883.18l7332.36 0c191,0 347.24,156.25 347.24,347.21l0 3611.68c0,191 -156.25,347.24 -347.24,347.24l-7332.36 0c-191,0 -347.24,-156.25 -347.24,-347.24l0 -3611.68c0,-190.96 156.25,-347.21 347.24,-347.21z"/>
    </clipPath>
    <clipPath id="id2">
     <path d="M5429.99 0c2998.91,0 5429.99,2431.09 5429.99,5429.99 0,2998.91 -2431.09,5429.99 -5429.99,5429.99 -2998.91,0 -5429.99,-2431.09 -5429.99,-5429.99 0,-2998.91 2431.09,-5429.99 5429.99,-5429.99z"/>
    </clipPath>
 </defs>
 <g id="Layer_x0020_1">
  <metadata id="CorelCorpID_0Corel-Layer"/>
  <path class="fil1" d="M5429.99 0c2998.91,0 5429.99,2431.09 5429.99,5429.99 0,2998.91 -2431.09,5429.99 -5429.99,5429.99 -2998.91,0 -5429.99,-2431.09 -5429.99,-5429.99 0,-2998.91 2431.09,-5429.99 5429.99,-5429.99z"/>
  <g style="clip-path:url(#id0)">
   <g id="_2000299800128">
    <polygon id="_1" class="fil2" points="5063.98,7140.87 10213.12,13730.83 15327.81,11123.37 19017.25,6348.6 9383.35,4718.73 "/>
    <path class="fil3" d="M1763.27 2883.18l7332.36 0c191,0 347.24,156.25 347.24,347.21l0 3611.68c0,191 -156.25,347.24 -347.24,347.24l-7332.36 0c-191,0 -347.24,-156.25 -347.24,-347.24l0 -3611.68c0,-190.96 156.25,-347.21 347.24,-347.21z"/>
   </g>
   <g style="clip-path:url(#id1)">
    <g>
     <rect class="fil4" x="1282.07" y="6331.23" width="8314.59" height="456.23"/>
    </g>
   </g>
   <g style="clip-path:url(#id2)">
    <path class="fil5" d="M1763.27 2883.18l7332.36 0c191,0 347.24,156.25 347.24,347.21l0 3611.68c0,191 -156.25,347.24 -347.24,347.24l-7332.36 0c-191,0 -347.24,-156.25 -347.24,-347.24l0 -3611.68c0,-190.96 156.25,-347.21 347.24,-347.21z"/>
    <rect class="fil6" x="1996.46" y="3533.06" width="2832.72" height="644.92"/>
    <rect class="fil7" x="1996.46" y="4440.92" width="2832.72" height="322.45"/>
    <rect class="fil7" x="1996.46" y="5021.34" width="2832.72" height="322.45"/>
    <rect class="fil8" x="2710.84" y="5586.89" width="2118.34" height="322.45"/>
    <polygon class="fil6" points="5539.59,4535.06 5742.98,4535.06 5742.98,5798.16 6964.43,5798.16 6964.43,6029.94 5742.98,6029.94 5539.59,6029.94 5539.59,5798.16 "/>
    <polygon class="fil6" points="8851.64,4946.8 8648.25,4946.8 8648.25,3683.67 7426.8,3683.67 7426.8,3451.92 8648.25,3451.92 8851.64,3451.92 8851.64,3683.67 "/>
    <g>
     <rect class="fil9" x="2088.77" y="7156.26" width="286.92" height="379.54"/>
     <rect class="fil9" x="8483.22" y="7156.26" width="286.92" height="379.54"/>
    </g>
    <rect class="fil10" x="5054.69" y="7481.97" width="769.35" height="4130.58"/>
    <polygon class="fil9" points="8548.5,2905.6 7451.3,1825.94 7079.72,2191.65 7272.84,2191.65 7442.55,2001.48 8361.26,2908.48 "/>
    <circle class="fil9" cx="7189.04" cy="2416.96" r="245.65"/>
    <polygon class="fil9" points="6761.66,2905.6 5664.43,1825.94 5292.88,2191.65 5485.97,2191.65 5655.67,2001.48 6574.38,2908.48 "/>
    <circle class="fil9" cx="5402.17" cy="2416.96" r="245.65"/>
    <rect class="fil9" x="1689.71" y="7481.98" width="7499.32" height="220.9"/>
   </g>
  </g>
  <path class="fil5" d="M5429.99 0c2998.91,0 5429.99,2431.09 5429.99,5429.99 0,2998.91 -2431.09,5429.99 -5429.99,5429.99 -2998.91,0 -5429.99,-2431.09 -5429.99,-5429.99 0,-2998.91 2431.09,-5429.99 5429.99,-5429.99z"/>
 </g>
</svg>
