<?xml version="1.0" encoding="UTF-8"?>
<!DOCTYPE svg PUBLIC "-//W3C//DTD SVG 1.1//EN" "http://www.w3.org/Graphics/SVG/1.1/DTD/svg11.dtd">
<!-- Creator: CorelDRAW -->
<svg xmlns="http://www.w3.org/2000/svg" xml:space="preserve" width="7.4643mm" height="7.0767mm" version="1.1" style="shape-rendering:geometricPrecision; text-rendering:geometricPrecision; image-rendering:optimizeQuality; fill-rule:evenodd; clip-rule:evenodd"
viewBox="0 0 960.82 910.92"
 xmlns:xlink="http://www.w3.org/1999/xlink"
 xmlns:xodm="http://www.corel.com/coreldraw/odm/2003">
 <defs>
  <style type="text/css">
   <![CDATA[
    .fil3 {fill:none}
    .fil1 {fill:#EE589F}
    .fil2 {fill:#FF72B7}
    .fil4 {fill:#FFABD4}
   ]]>
  </style>
   <clipPath id="id0">
    <path d="M307.1 859.31l653.71 -213.84 -67.67 -216.55 -34.79 118.05 -94.46 -84.25 -35.44 128.32 -97.61 -79.51 -30.71 123.6 -96.82 -80.3 -35.42 120.44 -96.84 -77.14 -36.22 133.83 -62.96 22.04 35.23 105.31z"/>
   </clipPath>
   <clipPath id="id1">
    <path d="M249.67 721.16c52.4,0 94.89,42.48 94.89,94.88 0,52.4 -42.49,94.88 -94.89,94.88 -52.39,0 -94.88,-42.48 -94.88,-94.88 0,-52.4 42.49,-94.88 94.88,-94.88zm0 58.03c20.35,0 36.85,16.5 36.85,36.85 0,20.35 -16.5,36.85 -36.85,36.85 -20.35,0 -36.85,-16.5 -36.85,-36.85 0,-20.35 16.5,-36.85 36.85,-36.85z"/>
   </clipPath>
   <clipPath id="id2">
    <path d="M168.88 722.42l-168.88 -668.3 214.19 -54.13 -77.21 89.08 121.89 34.07 -88.88 99.06 119.61 39.27 -87.45 92.56 119.85 38.17 -82.27 94.83 117.21 39.88 -93.12 102.73 15.46 64.9 -110.4 27.87z"/>
   </clipPath>
 </defs>
 <g id="Layer_x0020_1">
  <metadata id="CorelCorpID_0Corel-Layer"/>
  <polygon class="fil1" points="307.1,859.31 960.82,645.46 893.15,428.91 858.35,546.96 763.9,462.72 728.46,591.04 630.85,511.53 600.14,635.12 503.31,554.83 467.89,675.27 371.05,598.13 334.83,731.96 271.87,754 "/>
  <g style="clip-path:url(#id0)">
   <g id="_1480781582816">
    <polygon id="_1" class="fil2" points="136.08,848.49 973.3,554.97 1034.52,696.07 161.38,944.31 141.07,846.77 "/>
   </g>
  </g>
  <polygon class="fil3" points="307.1,859.31 960.82,645.46 893.15,428.91 858.35,546.96 763.9,462.72 728.46,591.04 630.85,511.53 600.14,635.12 503.31,554.83 467.89,675.27 371.05,598.13 334.83,731.96 271.87,754 "/>
  <path class="fil1" d="M249.67 721.16c52.4,0 94.89,42.48 94.89,94.88 0,52.4 -42.49,94.88 -94.89,94.88 -52.39,0 -94.88,-42.48 -94.88,-94.88 0,-52.4 42.49,-94.88 94.88,-94.88zm0 58.03c20.35,0 36.85,16.5 36.85,36.85 0,20.35 -16.5,36.85 -36.85,36.85 -20.35,0 -36.85,-16.5 -36.85,-36.85 0,-20.35 16.5,-36.85 36.85,-36.85z"/>
  <g style="clip-path:url(#id1)">
   <g id="_1480781582432">
    <polygon id="_1_0" class="fil2" points="136.08,848.49 973.3,554.97 1034.52,696.07 161.38,944.31 141.07,846.77 "/>
   </g>
  </g>
  <path class="fil3" d="M249.67 721.16c52.4,0 94.89,42.48 94.89,94.88 0,52.4 -42.49,94.88 -94.89,94.88 -52.39,0 -94.88,-42.48 -94.88,-94.88 0,-52.4 42.49,-94.88 94.88,-94.88zm0 58.03c20.35,0 36.85,16.5 36.85,36.85 0,20.35 -16.5,36.85 -36.85,36.85 -20.35,0 -36.85,-16.5 -36.85,-36.85 0,-20.35 16.5,-36.85 36.85,-36.85z"/>
  <polygon class="fil4" points="168.88,722.42 -0,54.13 214.19,0 136.99,89.08 258.87,123.15 169.99,222.21 289.6,261.48 202.14,354.05 322,392.21 239.73,487.04 356.94,526.92 263.83,629.65 279.29,694.56 "/>
  <g style="clip-path:url(#id2)">
   <g id="_1480781585840">
    <polygon id="_1_1" class="fil2" points="273.03,859.86 60.99,-3.46 -83.64,21.29 178.72,890.3 271.78,854.74 "/>
   </g>
  </g>
  <polygon class="fil3" points="168.88,722.42 -0,54.13 214.19,0 136.99,89.08 258.87,123.15 169.99,222.21 289.6,261.48 202.14,354.05 322,392.21 239.73,487.04 356.94,526.92 263.83,629.65 279.29,694.56 "/>
 </g>
</svg>
