<?xml version="1.0" encoding="UTF-8"?>
<!DOCTYPE svg PUBLIC "-//W3C//DTD SVG 1.1//EN" "http://www.w3.org/Graphics/SVG/1.1/DTD/svg11.dtd">
<!-- Creator: CorelDRAW -->
<svg xmlns="http://www.w3.org/2000/svg" xml:space="preserve" width="39.0936mm" height="25.7654mm" version="1.1" style="shape-rendering:geometricPrecision; text-rendering:geometricPrecision; image-rendering:optimizeQuality; fill-rule:evenodd; clip-rule:evenodd"
viewBox="0 0 1870.19 1232.59"
 xmlns:xlink="http://www.w3.org/1999/xlink"
 xmlns:xodm="http://www.corel.com/coreldraw/odm/2003">
 <defs>
  <style type="text/css">
   <![CDATA[
    .fil1 {fill:#EE589F}
    .fil0 {fill:white}
    .fil2 {fill:#AD0057;fill-opacity:0.200000}
   ]]>
  </style>
 </defs>
 <rect class="fil0" x="-232.51" y="-1449.09" width="4374.38" height="4374.38"/>
 <g id="Layer_x0020_1">
  <metadata id="CorelCorpID_0Corel-Layer"/>
  <rect class="fil1" width="1870.19" height="1232.59"/>
  <path class="fil2" d="M36.08 33.29c5.34,0 9.66,4.33 9.66,9.67 0,5.34 -4.32,9.66 -9.66,9.66 -5.34,0 -9.67,-4.32 -9.67,-9.66 0,-5.34 4.33,-9.67 9.67,-9.67z"/>
  <path class="fil2" d="M117.96 33.29c5.34,0 9.67,4.33 9.67,9.67 0,5.34 -4.33,9.66 -9.67,9.66 -5.34,0 -9.67,-4.32 -9.67,-9.66 0,-5.34 4.33,-9.67 9.67,-9.67z"/>
  <path class="fil2" d="M36.08 114.64c5.34,0 9.66,4.33 9.66,9.67 0,5.34 -4.32,9.66 -9.66,9.66 -5.34,0 -9.67,-4.32 -9.67,-9.66 0,-5.34 4.33,-9.67 9.67,-9.67z"/>
  <path class="fil2" d="M117.96 114.64c5.34,0 9.67,4.33 9.67,9.67 0,5.34 -4.33,9.66 -9.67,9.66 -5.34,0 -9.67,-4.32 -9.67,-9.66 0,-5.34 4.33,-9.67 9.67,-9.67z"/>
  <path class="fil2" d="M199.84 33.29c5.34,0 9.67,4.33 9.67,9.67 0,5.34 -4.33,9.66 -9.67,9.66 -5.34,0 -9.67,-4.32 -9.67,-9.66 0,-5.34 4.33,-9.67 9.67,-9.67z"/>
  <path class="fil2" d="M281.71 33.29c5.33,0 9.66,4.33 9.66,9.67 0,5.34 -4.33,9.66 -9.66,9.66 -5.34,0 -9.67,-4.32 -9.67,-9.66 0,-5.34 4.33,-9.67 9.67,-9.67z"/>
  <path class="fil2" d="M199.84 114.64c5.34,0 9.67,4.33 9.67,9.67 0,5.34 -4.33,9.66 -9.67,9.66 -5.34,0 -9.67,-4.32 -9.67,-9.66 0,-5.34 4.33,-9.67 9.67,-9.67z"/>
  <path class="fil2" d="M281.71 114.64c5.33,0 9.66,4.33 9.66,9.67 0,5.34 -4.33,9.66 -9.66,9.66 -5.34,0 -9.67,-4.32 -9.67,-9.66 0,-5.34 4.33,-9.67 9.67,-9.67z"/>
  <path class="fil2" d="M36.08 198.15c5.34,0 9.66,4.33 9.66,9.67 0,5.34 -4.32,9.67 -9.66,9.67 -5.34,0 -9.67,-4.33 -9.67,-9.67 0,-5.34 4.33,-9.67 9.67,-9.67z"/>
  <path class="fil2" d="M117.96 198.15c5.34,0 9.67,4.33 9.67,9.67 0,5.34 -4.33,9.67 -9.67,9.67 -5.34,0 -9.67,-4.33 -9.67,-9.67 0,-5.34 4.33,-9.67 9.67,-9.67z"/>
  <path class="fil2" d="M36.08 278.5c5.34,0 9.66,4.33 9.66,9.66 0,5.34 -4.32,9.67 -9.66,9.67 -5.34,0 -9.67,-4.33 -9.67,-9.67 0,-5.33 4.33,-9.66 9.67,-9.66z"/>
  <path class="fil2" d="M117.96 278.5c5.34,0 9.67,4.33 9.67,9.66 0,5.34 -4.33,9.67 -9.67,9.67 -5.34,0 -9.67,-4.33 -9.67,-9.67 0,-5.33 4.33,-9.66 9.67,-9.66z"/>
  <path class="fil2" d="M199.84 198.15c5.34,0 9.67,4.33 9.67,9.67 0,5.34 -4.33,9.67 -9.67,9.67 -5.34,0 -9.67,-4.33 -9.67,-9.67 0,-5.34 4.33,-9.67 9.67,-9.67z"/>
  <path class="fil2" d="M281.71 198.15c5.33,0 9.66,4.33 9.66,9.67 0,5.34 -4.33,9.67 -9.66,9.67 -5.34,0 -9.67,-4.33 -9.67,-9.67 0,-5.34 4.33,-9.67 9.67,-9.67z"/>
  <path class="fil2" d="M199.84 278.5c5.34,0 9.67,4.33 9.67,9.66 0,5.34 -4.33,9.67 -9.67,9.67 -5.34,0 -9.67,-4.33 -9.67,-9.67 0,-5.33 4.33,-9.66 9.67,-9.66z"/>
  <path class="fil2" d="M281.71 278.5c5.33,0 9.66,4.33 9.66,9.66 0,5.34 -4.33,9.67 -9.66,9.67 -5.34,0 -9.67,-4.33 -9.67,-9.67 0,-5.33 4.33,-9.66 9.67,-9.66z"/>
  <path class="fil2" d="M363.6 198.15c5.34,0 9.67,4.33 9.67,9.67 0,5.34 -4.33,9.67 -9.67,9.67 -5.34,0 -9.66,-4.33 -9.66,-9.67 0,-5.34 4.32,-9.67 9.66,-9.67z"/>
  <path class="fil2" d="M445.48 198.15c5.33,0 9.66,4.33 9.66,9.67 0,5.34 -4.33,9.67 -9.66,9.67 -5.34,0 -9.67,-4.33 -9.67,-9.67 0,-5.34 4.33,-9.67 9.67,-9.67z"/>
  <path class="fil2" d="M527.36 198.15c5.33,0 9.66,4.33 9.66,9.67 0,5.34 -4.33,9.67 -9.66,9.67 -5.34,0 -9.67,-4.33 -9.67,-9.67 0,-5.34 4.33,-9.67 9.67,-9.67z"/>
  <path class="fil2" d="M609.23 198.15c5.34,0 9.67,4.33 9.67,9.67 0,5.34 -4.33,9.67 -9.67,9.67 -5.34,0 -9.67,-4.33 -9.67,-9.67 0,-5.34 4.33,-9.67 9.67,-9.67z"/>
  <path class="fil2" d="M363.6 279.29c5.34,0 9.67,4.33 9.67,9.67 0,5.34 -4.33,9.67 -9.67,9.67 -5.34,0 -9.66,-4.33 -9.66,-9.67 0,-5.34 4.32,-9.67 9.66,-9.67z"/>
  <path class="fil2" d="M445.48 279.29c5.33,0 9.66,4.33 9.66,9.67 0,5.34 -4.33,9.67 -9.66,9.67 -5.34,0 -9.67,-4.33 -9.67,-9.67 0,-5.34 4.33,-9.67 9.67,-9.67z"/>
  <path class="fil2" d="M527.36 279.29c5.33,0 9.66,4.33 9.66,9.67 0,5.34 -4.33,9.67 -9.66,9.67 -5.34,0 -9.67,-4.33 -9.67,-9.67 0,-5.34 4.33,-9.67 9.67,-9.67z"/>
  <path class="fil2" d="M609.23 279.29c5.34,0 9.67,4.33 9.67,9.67 0,5.34 -4.33,9.67 -9.67,9.67 -5.34,0 -9.67,-4.33 -9.67,-9.67 0,-5.34 4.33,-9.67 9.67,-9.67z"/>
  <path class="fil2" d="M363.6 116c5.34,0 9.67,4.32 9.67,9.66 0,5.34 -4.33,9.67 -9.67,9.67 -5.34,0 -9.66,-4.33 -9.66,-9.67 0,-5.34 4.32,-9.66 9.66,-9.66z"/>
  <path class="fil2" d="M445.48 116c5.33,0 9.66,4.32 9.66,9.66 0,5.34 -4.33,9.67 -9.66,9.67 -5.34,0 -9.67,-4.33 -9.67,-9.67 0,-5.34 4.33,-9.66 9.67,-9.66z"/>
  <path class="fil2" d="M527.36 116c5.33,0 9.66,4.32 9.66,9.66 0,5.34 -4.33,9.67 -9.66,9.67 -5.34,0 -9.67,-4.33 -9.67,-9.67 0,-5.34 4.33,-9.66 9.67,-9.66z"/>
  <path class="fil2" d="M609.23 116c5.34,0 9.67,4.32 9.67,9.66 0,5.34 -4.33,9.67 -9.67,9.67 -5.34,0 -9.67,-4.33 -9.67,-9.67 0,-5.34 4.33,-9.66 9.67,-9.66z"/>
  <path class="fil2" d="M363.6 34.18c5.34,0 9.67,4.32 9.67,9.66 0,5.34 -4.33,9.67 -9.67,9.67 -5.34,0 -9.66,-4.33 -9.66,-9.67 0,-5.34 4.32,-9.66 9.66,-9.66z"/>
  <path class="fil2" d="M445.48 34.18c5.33,0 9.66,4.32 9.66,9.66 0,5.34 -4.33,9.67 -9.66,9.67 -5.34,0 -9.67,-4.33 -9.67,-9.67 0,-5.34 4.33,-9.66 9.67,-9.66z"/>
  <path class="fil2" d="M527.36 34.18c5.33,0 9.66,4.32 9.66,9.66 0,5.34 -4.33,9.67 -9.66,9.67 -5.34,0 -9.67,-4.33 -9.67,-9.67 0,-5.34 4.33,-9.66 9.67,-9.66z"/>
  <path class="fil2" d="M609.23 34.18c5.34,0 9.67,4.32 9.67,9.66 0,5.34 -4.33,9.67 -9.67,9.67 -5.34,0 -9.67,-4.33 -9.67,-9.67 0,-5.34 4.33,-9.66 9.67,-9.66z"/>
  <path class="fil2" d="M363.6 361.15c5.34,0 9.67,4.33 9.67,9.67 0,5.33 -4.33,9.66 -9.67,9.66 -5.34,0 -9.66,-4.33 -9.66,-9.66 0,-5.34 4.32,-9.67 9.66,-9.67z"/>
  <path class="fil2" d="M445.48 361.15c5.33,0 9.66,4.33 9.66,9.67 0,5.33 -4.33,9.66 -9.66,9.66 -5.34,0 -9.67,-4.33 -9.67,-9.66 0,-5.34 4.33,-9.67 9.67,-9.67z"/>
  <path class="fil2" d="M527.36 361.15c5.33,0 9.66,4.33 9.66,9.67 0,5.33 -4.33,9.66 -9.66,9.66 -5.34,0 -9.67,-4.33 -9.67,-9.66 0,-5.34 4.33,-9.67 9.67,-9.67z"/>
  <path class="fil2" d="M609.23 361.15c5.34,0 9.67,4.33 9.67,9.67 0,5.33 -4.33,9.66 -9.67,9.66 -5.34,0 -9.67,-4.33 -9.67,-9.66 0,-5.34 4.33,-9.67 9.67,-9.67z"/>
  <path class="fil2" d="M34.76 361.15c5.34,0 9.67,4.33 9.67,9.67 0,5.33 -4.33,9.66 -9.67,9.66 -5.34,0 -9.67,-4.33 -9.67,-9.66 0,-5.34 4.33,-9.67 9.67,-9.67z"/>
  <path class="fil2" d="M116.63 361.15c5.34,0 9.67,4.33 9.67,9.67 0,5.33 -4.33,9.66 -9.67,9.66 -5.33,0 -9.66,-4.33 -9.66,-9.66 0,-5.34 4.33,-9.67 9.66,-9.67z"/>
  <path class="fil2" d="M198.51 361.15c5.34,0 9.67,4.33 9.67,9.67 0,5.33 -4.33,9.66 -9.67,9.66 -5.33,0 -9.66,-4.33 -9.66,-9.66 0,-5.34 4.33,-9.67 9.66,-9.67z"/>
  <path class="fil2" d="M280.39 361.15c5.34,0 9.67,4.33 9.67,9.67 0,5.33 -4.33,9.66 -9.67,9.66 -5.34,0 -9.67,-4.33 -9.67,-9.66 0,-5.34 4.33,-9.67 9.67,-9.67z"/>
  <path class="fil2" d="M691.11 33.29c5.34,0 9.67,4.33 9.67,9.67 0,5.34 -4.33,9.66 -9.67,9.66 -5.34,0 -9.66,-4.32 -9.66,-9.66 0,-5.34 4.32,-9.67 9.66,-9.67z"/>
  <path class="fil2" d="M772.99 33.29c5.33,0 9.66,4.33 9.66,9.67 0,5.34 -4.33,9.66 -9.66,9.66 -5.34,0 -9.67,-4.32 -9.67,-9.66 0,-5.34 4.33,-9.67 9.67,-9.67z"/>
  <path class="fil2" d="M691.11 114.64c5.34,0 9.67,4.33 9.67,9.67 0,5.34 -4.33,9.66 -9.67,9.66 -5.34,0 -9.66,-4.32 -9.66,-9.66 0,-5.34 4.32,-9.67 9.66,-9.67z"/>
  <path class="fil2" d="M772.99 114.64c5.33,0 9.66,4.33 9.66,9.67 0,5.34 -4.33,9.66 -9.66,9.66 -5.34,0 -9.67,-4.32 -9.67,-9.66 0,-5.34 4.33,-9.67 9.67,-9.67z"/>
  <path class="fil2" d="M854.87 33.29c5.33,0 9.66,4.33 9.66,9.67 0,5.34 -4.33,9.66 -9.66,9.66 -5.34,0 -9.67,-4.32 -9.67,-9.66 0,-5.34 4.33,-9.67 9.67,-9.67z"/>
  <path class="fil2" d="M936.74 33.29c5.34,0 9.67,4.33 9.67,9.67 0,5.34 -4.33,9.66 -9.67,9.66 -5.34,0 -9.67,-4.32 -9.67,-9.66 0,-5.34 4.33,-9.67 9.67,-9.67z"/>
  <path class="fil2" d="M854.87 114.64c5.33,0 9.66,4.33 9.66,9.67 0,5.34 -4.33,9.66 -9.66,9.66 -5.34,0 -9.67,-4.32 -9.67,-9.66 0,-5.34 4.33,-9.67 9.67,-9.67z"/>
  <path class="fil2" d="M936.74 114.64c5.34,0 9.67,4.33 9.67,9.67 0,5.34 -4.33,9.66 -9.67,9.66 -5.34,0 -9.67,-4.32 -9.67,-9.66 0,-5.34 4.33,-9.67 9.67,-9.67z"/>
  <path class="fil2" d="M691.11 198.15c5.34,0 9.67,4.33 9.67,9.67 0,5.34 -4.33,9.67 -9.67,9.67 -5.34,0 -9.66,-4.33 -9.66,-9.67 0,-5.34 4.32,-9.67 9.66,-9.67z"/>
  <path class="fil2" d="M772.99 198.15c5.33,0 9.66,4.33 9.66,9.67 0,5.34 -4.33,9.67 -9.66,9.67 -5.34,0 -9.67,-4.33 -9.67,-9.67 0,-5.34 4.33,-9.67 9.67,-9.67z"/>
  <path class="fil2" d="M691.11 278.5c5.34,0 9.67,4.33 9.67,9.66 0,5.34 -4.33,9.67 -9.67,9.67 -5.34,0 -9.66,-4.33 -9.66,-9.67 0,-5.33 4.32,-9.66 9.66,-9.66z"/>
  <path class="fil2" d="M772.99 278.5c5.33,0 9.66,4.33 9.66,9.66 0,5.34 -4.33,9.67 -9.66,9.67 -5.34,0 -9.67,-4.33 -9.67,-9.67 0,-5.33 4.33,-9.66 9.67,-9.66z"/>
  <path class="fil2" d="M854.87 198.15c5.33,0 9.66,4.33 9.66,9.67 0,5.34 -4.33,9.67 -9.66,9.67 -5.34,0 -9.67,-4.33 -9.67,-9.67 0,-5.34 4.33,-9.67 9.67,-9.67z"/>
  <path class="fil2" d="M936.74 198.15c5.34,0 9.67,4.33 9.67,9.67 0,5.34 -4.33,9.67 -9.67,9.67 -5.34,0 -9.67,-4.33 -9.67,-9.67 0,-5.34 4.33,-9.67 9.67,-9.67z"/>
  <path class="fil2" d="M854.87 278.5c5.33,0 9.66,4.33 9.66,9.66 0,5.34 -4.33,9.67 -9.66,9.67 -5.34,0 -9.67,-4.33 -9.67,-9.67 0,-5.33 4.33,-9.66 9.67,-9.66z"/>
  <path class="fil2" d="M936.74 278.5c5.34,0 9.67,4.33 9.67,9.66 0,5.34 -4.33,9.67 -9.67,9.67 -5.34,0 -9.67,-4.33 -9.67,-9.67 0,-5.33 4.33,-9.66 9.67,-9.66z"/>
  <path class="fil2" d="M1018.63 198.15c5.33,0 9.66,4.33 9.66,9.67 0,5.34 -4.33,9.67 -9.66,9.67 -5.34,0 -9.67,-4.33 -9.67,-9.67 0,-5.34 4.33,-9.67 9.67,-9.67z"/>
  <path class="fil2" d="M1100.5 198.15c5.34,0 9.67,4.33 9.67,9.67 0,5.34 -4.33,9.67 -9.67,9.67 -5.34,0 -9.67,-4.33 -9.67,-9.67 0,-5.34 4.33,-9.67 9.67,-9.67z"/>
  <path class="fil2" d="M1182.38 198.15c5.34,0 9.67,4.33 9.67,9.67 0,5.34 -4.33,9.67 -9.67,9.67 -5.34,0 -9.67,-4.33 -9.67,-9.67 0,-5.34 4.33,-9.67 9.67,-9.67z"/>
  <path class="fil2" d="M1264.26 198.15c5.34,0 9.67,4.33 9.67,9.67 0,5.34 -4.33,9.67 -9.67,9.67 -5.33,0 -9.66,-4.33 -9.66,-9.67 0,-5.34 4.33,-9.67 9.66,-9.67z"/>
  <path class="fil2" d="M1018.63 279.29c5.33,0 9.66,4.33 9.66,9.67 0,5.34 -4.33,9.67 -9.66,9.67 -5.34,0 -9.67,-4.33 -9.67,-9.67 0,-5.34 4.33,-9.67 9.67,-9.67z"/>
  <path class="fil2" d="M1100.5 279.29c5.34,0 9.67,4.33 9.67,9.67 0,5.34 -4.33,9.67 -9.67,9.67 -5.34,0 -9.67,-4.33 -9.67,-9.67 0,-5.34 4.33,-9.67 9.67,-9.67z"/>
  <path class="fil2" d="M1182.38 279.29c5.34,0 9.67,4.33 9.67,9.67 0,5.34 -4.33,9.67 -9.67,9.67 -5.34,0 -9.67,-4.33 -9.67,-9.67 0,-5.34 4.33,-9.67 9.67,-9.67z"/>
  <path class="fil2" d="M1264.26 279.29c5.34,0 9.67,4.33 9.67,9.67 0,5.34 -4.33,9.67 -9.67,9.67 -5.33,0 -9.66,-4.33 -9.66,-9.67 0,-5.34 4.33,-9.67 9.66,-9.67z"/>
  <path class="fil2" d="M1018.63 116c5.33,0 9.66,4.32 9.66,9.66 0,5.34 -4.33,9.67 -9.66,9.67 -5.34,0 -9.67,-4.33 -9.67,-9.67 0,-5.34 4.33,-9.66 9.67,-9.66z"/>
  <path class="fil2" d="M1100.5 116c5.34,0 9.67,4.32 9.67,9.66 0,5.34 -4.33,9.67 -9.67,9.67 -5.34,0 -9.67,-4.33 -9.67,-9.67 0,-5.34 4.33,-9.66 9.67,-9.66z"/>
  <path class="fil2" d="M1182.38 116c5.34,0 9.67,4.32 9.67,9.66 0,5.34 -4.33,9.67 -9.67,9.67 -5.34,0 -9.67,-4.33 -9.67,-9.67 0,-5.34 4.33,-9.66 9.67,-9.66z"/>
  <path class="fil2" d="M1264.26 116c5.34,0 9.67,4.32 9.67,9.66 0,5.34 -4.33,9.67 -9.67,9.67 -5.33,0 -9.66,-4.33 -9.66,-9.67 0,-5.34 4.33,-9.66 9.66,-9.66z"/>
  <path class="fil2" d="M1018.63 34.18c5.33,0 9.66,4.32 9.66,9.66 0,5.34 -4.33,9.67 -9.66,9.67 -5.34,0 -9.67,-4.33 -9.67,-9.67 0,-5.34 4.33,-9.66 9.67,-9.66z"/>
  <path class="fil2" d="M1100.5 34.18c5.34,0 9.67,4.32 9.67,9.66 0,5.34 -4.33,9.67 -9.67,9.67 -5.34,0 -9.67,-4.33 -9.67,-9.67 0,-5.34 4.33,-9.66 9.67,-9.66z"/>
  <path class="fil2" d="M1182.38 34.18c5.34,0 9.67,4.32 9.67,9.66 0,5.34 -4.33,9.67 -9.67,9.67 -5.34,0 -9.67,-4.33 -9.67,-9.67 0,-5.34 4.33,-9.66 9.67,-9.66z"/>
  <path class="fil2" d="M1264.26 34.18c5.34,0 9.67,4.32 9.67,9.66 0,5.34 -4.33,9.67 -9.67,9.67 -5.33,0 -9.66,-4.33 -9.66,-9.67 0,-5.34 4.33,-9.66 9.66,-9.66z"/>
  <path class="fil2" d="M1018.63 361.15c5.33,0 9.66,4.33 9.66,9.67 0,5.33 -4.33,9.66 -9.66,9.66 -5.34,0 -9.67,-4.33 -9.67,-9.66 0,-5.34 4.33,-9.67 9.67,-9.67z"/>
  <path class="fil2" d="M1100.5 361.15c5.34,0 9.67,4.33 9.67,9.67 0,5.33 -4.33,9.66 -9.67,9.66 -5.34,0 -9.67,-4.33 -9.67,-9.66 0,-5.34 4.33,-9.67 9.67,-9.67z"/>
  <path class="fil2" d="M1182.38 361.15c5.34,0 9.67,4.33 9.67,9.67 0,5.33 -4.33,9.66 -9.67,9.66 -5.34,0 -9.67,-4.33 -9.67,-9.66 0,-5.34 4.33,-9.67 9.67,-9.67z"/>
  <path class="fil2" d="M1264.26 361.15c5.34,0 9.67,4.33 9.67,9.67 0,5.33 -4.33,9.66 -9.67,9.66 -5.33,0 -9.66,-4.33 -9.66,-9.66 0,-5.34 4.33,-9.67 9.66,-9.67z"/>
  <path class="fil2" d="M689.79 361.15c5.33,0 9.66,4.33 9.66,9.67 0,5.33 -4.33,9.66 -9.66,9.66 -5.34,0 -9.67,-4.33 -9.67,-9.66 0,-5.34 4.33,-9.67 9.67,-9.67z"/>
  <path class="fil2" d="M771.66 361.15c5.34,0 9.67,4.33 9.67,9.67 0,5.33 -4.33,9.66 -9.67,9.66 -5.34,0 -9.67,-4.33 -9.67,-9.66 0,-5.34 4.33,-9.67 9.67,-9.67z"/>
  <path class="fil2" d="M853.55 361.15c5.34,0 9.67,4.33 9.67,9.67 0,5.33 -4.33,9.66 -9.67,9.66 -5.34,0 -9.67,-4.33 -9.67,-9.66 0,-5.34 4.33,-9.67 9.67,-9.67z"/>
  <path class="fil2" d="M935.42 361.15c5.34,0 9.67,4.33 9.67,9.67 0,5.33 -4.33,9.66 -9.67,9.66 -5.34,0 -9.66,-4.33 -9.66,-9.66 0,-5.34 4.32,-9.67 9.66,-9.67z"/>
  <path class="fil2" d="M1346.25 198.15c5.34,0 9.67,4.33 9.67,9.67 0,5.34 -4.33,9.67 -9.67,9.67 -5.34,0 -9.66,-4.33 -9.66,-9.67 0,-5.34 4.32,-9.67 9.66,-9.67z"/>
  <path class="fil2" d="M1346.25 279.29c5.34,0 9.67,4.33 9.67,9.67 0,5.34 -4.33,9.67 -9.67,9.67 -5.34,0 -9.66,-4.33 -9.66,-9.67 0,-5.34 4.32,-9.67 9.66,-9.67z"/>
  <path class="fil2" d="M1346.25 116c5.34,0 9.67,4.32 9.67,9.66 0,5.34 -4.33,9.67 -9.67,9.67 -5.34,0 -9.66,-4.33 -9.66,-9.67 0,-5.34 4.32,-9.66 9.66,-9.66z"/>
  <path class="fil2" d="M1346.25 34.18c5.34,0 9.67,4.32 9.67,9.66 0,5.34 -4.33,9.67 -9.67,9.67 -5.34,0 -9.66,-4.33 -9.66,-9.67 0,-5.34 4.32,-9.66 9.66,-9.66z"/>
  <path class="fil2" d="M1346.25 361.15c5.34,0 9.67,4.33 9.67,9.67 0,5.33 -4.33,9.66 -9.67,9.66 -5.34,0 -9.66,-4.33 -9.66,-9.66 0,-5.34 4.32,-9.67 9.66,-9.67z"/>
  <path class="fil2" d="M36.08 440.61c5.34,0 9.66,4.33 9.66,9.67 0,5.34 -4.32,9.66 -9.66,9.66 -5.34,0 -9.67,-4.32 -9.67,-9.66 0,-5.34 4.33,-9.67 9.67,-9.67z"/>
  <path class="fil2" d="M117.96 440.61c5.34,0 9.67,4.33 9.67,9.67 0,5.34 -4.33,9.66 -9.67,9.66 -5.34,0 -9.67,-4.32 -9.67,-9.66 0,-5.34 4.33,-9.67 9.67,-9.67z"/>
  <path class="fil2" d="M36.08 521.96c5.34,0 9.66,4.33 9.66,9.67 0,5.34 -4.32,9.66 -9.66,9.66 -5.34,0 -9.67,-4.32 -9.67,-9.66 0,-5.34 4.33,-9.67 9.67,-9.67z"/>
  <path class="fil2" d="M117.96 521.96c5.34,0 9.67,4.33 9.67,9.67 0,5.34 -4.33,9.66 -9.67,9.66 -5.34,0 -9.67,-4.32 -9.67,-9.66 0,-5.34 4.33,-9.67 9.67,-9.67z"/>
  <path class="fil2" d="M199.84 440.61c5.34,0 9.67,4.33 9.67,9.67 0,5.34 -4.33,9.66 -9.67,9.66 -5.34,0 -9.67,-4.32 -9.67,-9.66 0,-5.34 4.33,-9.67 9.67,-9.67z"/>
  <path class="fil2" d="M281.71 440.61c5.33,0 9.66,4.33 9.66,9.67 0,5.34 -4.33,9.66 -9.66,9.66 -5.34,0 -9.67,-4.32 -9.67,-9.66 0,-5.34 4.33,-9.67 9.67,-9.67z"/>
  <path class="fil2" d="M199.84 521.96c5.34,0 9.67,4.33 9.67,9.67 0,5.34 -4.33,9.66 -9.67,9.66 -5.34,0 -9.67,-4.32 -9.67,-9.66 0,-5.34 4.33,-9.67 9.67,-9.67z"/>
  <path class="fil2" d="M281.71 521.96c5.33,0 9.66,4.33 9.66,9.67 0,5.34 -4.33,9.66 -9.66,9.66 -5.34,0 -9.67,-4.32 -9.67,-9.66 0,-5.34 4.33,-9.67 9.67,-9.67z"/>
  <path class="fil2" d="M36.08 605.47c5.34,0 9.66,4.33 9.66,9.67 0,5.34 -4.32,9.66 -9.66,9.66 -5.34,0 -9.67,-4.32 -9.67,-9.66 0,-5.34 4.33,-9.67 9.67,-9.67z"/>
  <path class="fil2" d="M117.96 605.47c5.34,0 9.67,4.33 9.67,9.67 0,5.34 -4.33,9.66 -9.67,9.66 -5.34,0 -9.67,-4.32 -9.67,-9.66 0,-5.34 4.33,-9.67 9.67,-9.67z"/>
  <path class="fil2" d="M36.08 685.82c5.34,0 9.66,4.33 9.66,9.66 0,5.34 -4.32,9.67 -9.66,9.67 -5.34,0 -9.67,-4.33 -9.67,-9.67 0,-5.33 4.33,-9.66 9.67,-9.66z"/>
  <path class="fil2" d="M117.96 685.82c5.34,0 9.67,4.33 9.67,9.66 0,5.34 -4.33,9.67 -9.67,9.67 -5.34,0 -9.67,-4.33 -9.67,-9.67 0,-5.33 4.33,-9.66 9.67,-9.66z"/>
  <path class="fil2" d="M199.84 605.47c5.34,0 9.67,4.33 9.67,9.67 0,5.34 -4.33,9.66 -9.67,9.66 -5.34,0 -9.67,-4.32 -9.67,-9.66 0,-5.34 4.33,-9.67 9.67,-9.67z"/>
  <path class="fil2" d="M281.71 605.47c5.33,0 9.66,4.33 9.66,9.67 0,5.34 -4.33,9.66 -9.66,9.66 -5.34,0 -9.67,-4.32 -9.67,-9.66 0,-5.34 4.33,-9.67 9.67,-9.67z"/>
  <path class="fil2" d="M199.84 685.82c5.34,0 9.67,4.33 9.67,9.66 0,5.34 -4.33,9.67 -9.67,9.67 -5.34,0 -9.67,-4.33 -9.67,-9.67 0,-5.33 4.33,-9.66 9.67,-9.66z"/>
  <path class="fil2" d="M281.71 685.82c5.33,0 9.66,4.33 9.66,9.66 0,5.34 -4.33,9.67 -9.66,9.67 -5.34,0 -9.67,-4.33 -9.67,-9.67 0,-5.33 4.33,-9.66 9.67,-9.66z"/>
  <path class="fil2" d="M363.6 605.47c5.34,0 9.67,4.33 9.67,9.67 0,5.34 -4.33,9.66 -9.67,9.66 -5.34,0 -9.66,-4.32 -9.66,-9.66 0,-5.34 4.32,-9.67 9.66,-9.67z"/>
  <path class="fil2" d="M445.48 605.47c5.33,0 9.66,4.33 9.66,9.67 0,5.34 -4.33,9.66 -9.66,9.66 -5.34,0 -9.67,-4.32 -9.67,-9.66 0,-5.34 4.33,-9.67 9.67,-9.67z"/>
  <path class="fil2" d="M527.36 605.47c5.33,0 9.66,4.33 9.66,9.67 0,5.34 -4.33,9.66 -9.66,9.66 -5.34,0 -9.67,-4.32 -9.67,-9.66 0,-5.34 4.33,-9.67 9.67,-9.67z"/>
  <path class="fil2" d="M609.23 605.47c5.34,0 9.67,4.33 9.67,9.67 0,5.34 -4.33,9.66 -9.67,9.66 -5.34,0 -9.67,-4.32 -9.67,-9.66 0,-5.34 4.33,-9.67 9.67,-9.67z"/>
  <path class="fil2" d="M363.6 686.61c5.34,0 9.67,4.33 9.67,9.67 0,5.34 -4.33,9.67 -9.67,9.67 -5.34,0 -9.66,-4.33 -9.66,-9.67 0,-5.34 4.32,-9.67 9.66,-9.67z"/>
  <path class="fil2" d="M445.48 686.61c5.33,0 9.66,4.33 9.66,9.67 0,5.34 -4.33,9.67 -9.66,9.67 -5.34,0 -9.67,-4.33 -9.67,-9.67 0,-5.34 4.33,-9.67 9.67,-9.67z"/>
  <path class="fil2" d="M527.36 686.61c5.33,0 9.66,4.33 9.66,9.67 0,5.34 -4.33,9.67 -9.66,9.67 -5.34,0 -9.67,-4.33 -9.67,-9.67 0,-5.34 4.33,-9.67 9.67,-9.67z"/>
  <path class="fil2" d="M609.23 686.61c5.34,0 9.67,4.33 9.67,9.67 0,5.34 -4.33,9.67 -9.67,9.67 -5.34,0 -9.67,-4.33 -9.67,-9.67 0,-5.34 4.33,-9.67 9.67,-9.67z"/>
  <path class="fil2" d="M363.6 523.32c5.34,0 9.67,4.32 9.67,9.66 0,5.34 -4.33,9.67 -9.67,9.67 -5.34,0 -9.66,-4.33 -9.66,-9.67 0,-5.34 4.32,-9.66 9.66,-9.66z"/>
  <path class="fil2" d="M445.48 523.32c5.33,0 9.66,4.32 9.66,9.66 0,5.34 -4.33,9.67 -9.66,9.67 -5.34,0 -9.67,-4.33 -9.67,-9.67 0,-5.34 4.33,-9.66 9.67,-9.66z"/>
  <path class="fil2" d="M527.36 523.32c5.33,0 9.66,4.32 9.66,9.66 0,5.34 -4.33,9.67 -9.66,9.67 -5.34,0 -9.67,-4.33 -9.67,-9.67 0,-5.34 4.33,-9.66 9.67,-9.66z"/>
  <path class="fil2" d="M609.23 523.32c5.34,0 9.67,4.32 9.67,9.66 0,5.34 -4.33,9.67 -9.67,9.67 -5.34,0 -9.67,-4.33 -9.67,-9.67 0,-5.34 4.33,-9.66 9.67,-9.66z"/>
  <path class="fil2" d="M363.6 441.5c5.34,0 9.67,4.32 9.67,9.66 0,5.34 -4.33,9.67 -9.67,9.67 -5.34,0 -9.66,-4.33 -9.66,-9.67 0,-5.34 4.32,-9.66 9.66,-9.66z"/>
  <path class="fil2" d="M445.48 441.5c5.33,0 9.66,4.32 9.66,9.66 0,5.34 -4.33,9.67 -9.66,9.67 -5.34,0 -9.67,-4.33 -9.67,-9.67 0,-5.34 4.33,-9.66 9.67,-9.66z"/>
  <path class="fil2" d="M527.36 441.5c5.33,0 9.66,4.32 9.66,9.66 0,5.34 -4.33,9.67 -9.66,9.67 -5.34,0 -9.67,-4.33 -9.67,-9.67 0,-5.34 4.33,-9.66 9.67,-9.66z"/>
  <path class="fil2" d="M609.23 441.5c5.34,0 9.67,4.32 9.67,9.66 0,5.34 -4.33,9.67 -9.67,9.67 -5.34,0 -9.67,-4.33 -9.67,-9.67 0,-5.34 4.33,-9.66 9.67,-9.66z"/>
  <path class="fil2" d="M363.6 768.47c5.34,0 9.67,4.33 9.67,9.67 0,5.33 -4.33,9.66 -9.67,9.66 -5.34,0 -9.66,-4.33 -9.66,-9.66 0,-5.34 4.32,-9.67 9.66,-9.67z"/>
  <path class="fil2" d="M445.48 768.47c5.33,0 9.66,4.33 9.66,9.67 0,5.33 -4.33,9.66 -9.66,9.66 -5.34,0 -9.67,-4.33 -9.67,-9.66 0,-5.34 4.33,-9.67 9.67,-9.67z"/>
  <path class="fil2" d="M527.36 768.47c5.33,0 9.66,4.33 9.66,9.67 0,5.33 -4.33,9.66 -9.66,9.66 -5.34,0 -9.67,-4.33 -9.67,-9.66 0,-5.34 4.33,-9.67 9.67,-9.67z"/>
  <path class="fil2" d="M609.23 768.47c5.34,0 9.67,4.33 9.67,9.67 0,5.33 -4.33,9.66 -9.67,9.66 -5.34,0 -9.67,-4.33 -9.67,-9.66 0,-5.34 4.33,-9.67 9.67,-9.67z"/>
  <path class="fil2" d="M34.76 768.47c5.34,0 9.67,4.33 9.67,9.67 0,5.33 -4.33,9.66 -9.67,9.66 -5.34,0 -9.67,-4.33 -9.67,-9.66 0,-5.34 4.33,-9.67 9.67,-9.67z"/>
  <path class="fil2" d="M116.63 768.47c5.34,0 9.67,4.33 9.67,9.67 0,5.33 -4.33,9.66 -9.67,9.66 -5.33,0 -9.66,-4.33 -9.66,-9.66 0,-5.34 4.33,-9.67 9.66,-9.67z"/>
  <path class="fil2" d="M198.51 768.47c5.34,0 9.67,4.33 9.67,9.67 0,5.33 -4.33,9.66 -9.67,9.66 -5.33,0 -9.66,-4.33 -9.66,-9.66 0,-5.34 4.33,-9.67 9.66,-9.67z"/>
  <path class="fil2" d="M280.39 768.47c5.34,0 9.67,4.33 9.67,9.67 0,5.33 -4.33,9.66 -9.67,9.66 -5.34,0 -9.67,-4.33 -9.67,-9.66 0,-5.34 4.33,-9.67 9.67,-9.67z"/>
  <path class="fil2" d="M691.11 440.61c5.34,0 9.67,4.33 9.67,9.67 0,5.34 -4.33,9.66 -9.67,9.66 -5.34,0 -9.66,-4.32 -9.66,-9.66 0,-5.34 4.32,-9.67 9.66,-9.67z"/>
  <path class="fil2" d="M772.99 440.61c5.33,0 9.66,4.33 9.66,9.67 0,5.34 -4.33,9.66 -9.66,9.66 -5.34,0 -9.67,-4.32 -9.67,-9.66 0,-5.34 4.33,-9.67 9.67,-9.67z"/>
  <path class="fil2" d="M691.11 521.96c5.34,0 9.67,4.33 9.67,9.67 0,5.34 -4.33,9.66 -9.67,9.66 -5.34,0 -9.66,-4.32 -9.66,-9.66 0,-5.34 4.32,-9.67 9.66,-9.67z"/>
  <path class="fil2" d="M772.99 521.96c5.33,0 9.66,4.33 9.66,9.67 0,5.34 -4.33,9.66 -9.66,9.66 -5.34,0 -9.67,-4.32 -9.67,-9.66 0,-5.34 4.33,-9.67 9.67,-9.67z"/>
  <path class="fil2" d="M854.87 440.61c5.33,0 9.66,4.33 9.66,9.67 0,5.34 -4.33,9.66 -9.66,9.66 -5.34,0 -9.67,-4.32 -9.67,-9.66 0,-5.34 4.33,-9.67 9.67,-9.67z"/>
  <path class="fil2" d="M936.74 440.61c5.34,0 9.67,4.33 9.67,9.67 0,5.34 -4.33,9.66 -9.67,9.66 -5.34,0 -9.67,-4.32 -9.67,-9.66 0,-5.34 4.33,-9.67 9.67,-9.67z"/>
  <path class="fil2" d="M854.87 521.96c5.33,0 9.66,4.33 9.66,9.67 0,5.34 -4.33,9.66 -9.66,9.66 -5.34,0 -9.67,-4.32 -9.67,-9.66 0,-5.34 4.33,-9.67 9.67,-9.67z"/>
  <path class="fil2" d="M936.74 521.96c5.34,0 9.67,4.33 9.67,9.67 0,5.34 -4.33,9.66 -9.67,9.66 -5.34,0 -9.67,-4.32 -9.67,-9.66 0,-5.34 4.33,-9.67 9.67,-9.67z"/>
  <path class="fil2" d="M691.11 605.47c5.34,0 9.67,4.33 9.67,9.67 0,5.34 -4.33,9.66 -9.67,9.66 -5.34,0 -9.66,-4.32 -9.66,-9.66 0,-5.34 4.32,-9.67 9.66,-9.67z"/>
  <path class="fil2" d="M772.99 605.47c5.33,0 9.66,4.33 9.66,9.67 0,5.34 -4.33,9.66 -9.66,9.66 -5.34,0 -9.67,-4.32 -9.67,-9.66 0,-5.34 4.33,-9.67 9.67,-9.67z"/>
  <path class="fil2" d="M691.11 685.82c5.34,0 9.67,4.33 9.67,9.66 0,5.34 -4.33,9.67 -9.67,9.67 -5.34,0 -9.66,-4.33 -9.66,-9.67 0,-5.33 4.32,-9.66 9.66,-9.66z"/>
  <path class="fil2" d="M772.99 685.82c5.33,0 9.66,4.33 9.66,9.66 0,5.34 -4.33,9.67 -9.66,9.67 -5.34,0 -9.67,-4.33 -9.67,-9.67 0,-5.33 4.33,-9.66 9.67,-9.66z"/>
  <path class="fil2" d="M854.87 605.47c5.33,0 9.66,4.33 9.66,9.67 0,5.34 -4.33,9.66 -9.66,9.66 -5.34,0 -9.67,-4.32 -9.67,-9.66 0,-5.34 4.33,-9.67 9.67,-9.67z"/>
  <path class="fil2" d="M936.74 605.47c5.34,0 9.67,4.33 9.67,9.67 0,5.34 -4.33,9.66 -9.67,9.66 -5.34,0 -9.67,-4.32 -9.67,-9.66 0,-5.34 4.33,-9.67 9.67,-9.67z"/>
  <path class="fil2" d="M854.87 685.82c5.33,0 9.66,4.33 9.66,9.66 0,5.34 -4.33,9.67 -9.66,9.67 -5.34,0 -9.67,-4.33 -9.67,-9.67 0,-5.33 4.33,-9.66 9.67,-9.66z"/>
  <path class="fil2" d="M936.74 685.82c5.34,0 9.67,4.33 9.67,9.66 0,5.34 -4.33,9.67 -9.67,9.67 -5.34,0 -9.67,-4.33 -9.67,-9.67 0,-5.33 4.33,-9.66 9.67,-9.66z"/>
  <path class="fil2" d="M1018.63 605.47c5.33,0 9.66,4.33 9.66,9.67 0,5.34 -4.33,9.66 -9.66,9.66 -5.34,0 -9.67,-4.32 -9.67,-9.66 0,-5.34 4.33,-9.67 9.67,-9.67z"/>
  <path class="fil2" d="M1100.5 605.47c5.34,0 9.67,4.33 9.67,9.67 0,5.34 -4.33,9.66 -9.67,9.66 -5.34,0 -9.67,-4.32 -9.67,-9.66 0,-5.34 4.33,-9.67 9.67,-9.67z"/>
  <path class="fil2" d="M1182.38 605.47c5.34,0 9.67,4.33 9.67,9.67 0,5.34 -4.33,9.66 -9.67,9.66 -5.34,0 -9.67,-4.32 -9.67,-9.66 0,-5.34 4.33,-9.67 9.67,-9.67z"/>
  <path class="fil2" d="M1264.26 605.47c5.34,0 9.67,4.33 9.67,9.67 0,5.34 -4.33,9.66 -9.67,9.66 -5.33,0 -9.66,-4.32 -9.66,-9.66 0,-5.34 4.33,-9.67 9.66,-9.67z"/>
  <path class="fil2" d="M1018.63 686.61c5.33,0 9.66,4.33 9.66,9.67 0,5.34 -4.33,9.67 -9.66,9.67 -5.34,0 -9.67,-4.33 -9.67,-9.67 0,-5.34 4.33,-9.67 9.67,-9.67z"/>
  <path class="fil2" d="M1100.5 686.61c5.34,0 9.67,4.33 9.67,9.67 0,5.34 -4.33,9.67 -9.67,9.67 -5.34,0 -9.67,-4.33 -9.67,-9.67 0,-5.34 4.33,-9.67 9.67,-9.67z"/>
  <path class="fil2" d="M1182.38 686.61c5.34,0 9.67,4.33 9.67,9.67 0,5.34 -4.33,9.67 -9.67,9.67 -5.34,0 -9.67,-4.33 -9.67,-9.67 0,-5.34 4.33,-9.67 9.67,-9.67z"/>
  <path class="fil2" d="M1264.26 686.61c5.34,0 9.67,4.33 9.67,9.67 0,5.34 -4.33,9.67 -9.67,9.67 -5.33,0 -9.66,-4.33 -9.66,-9.67 0,-5.34 4.33,-9.67 9.66,-9.67z"/>
  <path class="fil2" d="M1018.63 523.32c5.33,0 9.66,4.32 9.66,9.66 0,5.34 -4.33,9.67 -9.66,9.67 -5.34,0 -9.67,-4.33 -9.67,-9.67 0,-5.34 4.33,-9.66 9.67,-9.66z"/>
  <path class="fil2" d="M1100.5 523.32c5.34,0 9.67,4.32 9.67,9.66 0,5.34 -4.33,9.67 -9.67,9.67 -5.34,0 -9.67,-4.33 -9.67,-9.67 0,-5.34 4.33,-9.66 9.67,-9.66z"/>
  <path class="fil2" d="M1182.38 523.32c5.34,0 9.67,4.32 9.67,9.66 0,5.34 -4.33,9.67 -9.67,9.67 -5.34,0 -9.67,-4.33 -9.67,-9.67 0,-5.34 4.33,-9.66 9.67,-9.66z"/>
  <path class="fil2" d="M1264.26 523.32c5.34,0 9.67,4.32 9.67,9.66 0,5.34 -4.33,9.67 -9.67,9.67 -5.33,0 -9.66,-4.33 -9.66,-9.67 0,-5.34 4.33,-9.66 9.66,-9.66z"/>
  <path class="fil2" d="M1018.63 441.5c5.33,0 9.66,4.32 9.66,9.66 0,5.34 -4.33,9.67 -9.66,9.67 -5.34,0 -9.67,-4.33 -9.67,-9.67 0,-5.34 4.33,-9.66 9.67,-9.66z"/>
  <path class="fil2" d="M1100.5 441.5c5.34,0 9.67,4.32 9.67,9.66 0,5.34 -4.33,9.67 -9.67,9.67 -5.34,0 -9.67,-4.33 -9.67,-9.67 0,-5.34 4.33,-9.66 9.67,-9.66z"/>
  <path class="fil2" d="M1182.38 441.5c5.34,0 9.67,4.32 9.67,9.66 0,5.34 -4.33,9.67 -9.67,9.67 -5.34,0 -9.67,-4.33 -9.67,-9.67 0,-5.34 4.33,-9.66 9.67,-9.66z"/>
  <path class="fil2" d="M1264.26 441.5c5.34,0 9.67,4.32 9.67,9.66 0,5.34 -4.33,9.67 -9.67,9.67 -5.33,0 -9.66,-4.33 -9.66,-9.67 0,-5.34 4.33,-9.66 9.66,-9.66z"/>
  <path class="fil2" d="M1018.63 768.47c5.33,0 9.66,4.33 9.66,9.67 0,5.33 -4.33,9.66 -9.66,9.66 -5.34,0 -9.67,-4.33 -9.67,-9.66 0,-5.34 4.33,-9.67 9.67,-9.67z"/>
  <path class="fil2" d="M1100.5 768.47c5.34,0 9.67,4.33 9.67,9.67 0,5.33 -4.33,9.66 -9.67,9.66 -5.34,0 -9.67,-4.33 -9.67,-9.66 0,-5.34 4.33,-9.67 9.67,-9.67z"/>
  <path class="fil2" d="M1182.38 768.47c5.34,0 9.67,4.33 9.67,9.67 0,5.33 -4.33,9.66 -9.67,9.66 -5.34,0 -9.67,-4.33 -9.67,-9.66 0,-5.34 4.33,-9.67 9.67,-9.67z"/>
  <path class="fil2" d="M1264.26 768.47c5.34,0 9.67,4.33 9.67,9.67 0,5.33 -4.33,9.66 -9.67,9.66 -5.33,0 -9.66,-4.33 -9.66,-9.66 0,-5.34 4.33,-9.67 9.66,-9.67z"/>
  <path class="fil2" d="M689.79 768.47c5.33,0 9.66,4.33 9.66,9.67 0,5.33 -4.33,9.66 -9.66,9.66 -5.34,0 -9.67,-4.33 -9.67,-9.66 0,-5.34 4.33,-9.67 9.67,-9.67z"/>
  <path class="fil2" d="M771.66 768.47c5.34,0 9.67,4.33 9.67,9.67 0,5.33 -4.33,9.66 -9.67,9.66 -5.34,0 -9.67,-4.33 -9.67,-9.66 0,-5.34 4.33,-9.67 9.67,-9.67z"/>
  <path class="fil2" d="M853.55 768.47c5.34,0 9.67,4.33 9.67,9.67 0,5.33 -4.33,9.66 -9.67,9.66 -5.34,0 -9.67,-4.33 -9.67,-9.66 0,-5.34 4.33,-9.67 9.67,-9.67z"/>
  <path class="fil2" d="M935.42 768.47c5.34,0 9.67,4.33 9.67,9.67 0,5.33 -4.33,9.66 -9.67,9.66 -5.34,0 -9.66,-4.33 -9.66,-9.66 0,-5.34 4.32,-9.67 9.66,-9.67z"/>
  <path class="fil2" d="M1346.25 605.47c5.34,0 9.67,4.33 9.67,9.67 0,5.34 -4.33,9.66 -9.67,9.66 -5.34,0 -9.66,-4.32 -9.66,-9.66 0,-5.34 4.32,-9.67 9.66,-9.67z"/>
  <path class="fil2" d="M1346.25 686.61c5.34,0 9.67,4.33 9.67,9.67 0,5.34 -4.33,9.67 -9.67,9.67 -5.34,0 -9.66,-4.33 -9.66,-9.67 0,-5.34 4.32,-9.67 9.66,-9.67z"/>
  <path class="fil2" d="M1346.25 523.32c5.34,0 9.67,4.32 9.67,9.66 0,5.34 -4.33,9.67 -9.67,9.67 -5.34,0 -9.66,-4.33 -9.66,-9.67 0,-5.34 4.32,-9.66 9.66,-9.66z"/>
  <path class="fil2" d="M1346.25 441.5c5.34,0 9.67,4.32 9.67,9.66 0,5.34 -4.33,9.67 -9.67,9.67 -5.34,0 -9.66,-4.33 -9.66,-9.67 0,-5.34 4.32,-9.66 9.66,-9.66z"/>
  <path class="fil2" d="M1346.25 768.47c5.34,0 9.67,4.33 9.67,9.67 0,5.33 -4.33,9.66 -9.67,9.66 -5.34,0 -9.66,-4.33 -9.66,-9.66 0,-5.34 4.32,-9.67 9.66,-9.67z"/>
  <path class="fil2" d="M36.08 852.1c5.34,0 9.66,4.33 9.66,9.67 0,5.34 -4.32,9.67 -9.66,9.67 -5.34,0 -9.67,-4.33 -9.67,-9.67 0,-5.34 4.33,-9.67 9.67,-9.67z"/>
  <path class="fil2" d="M117.96 852.1c5.34,0 9.67,4.33 9.67,9.67 0,5.34 -4.33,9.67 -9.67,9.67 -5.34,0 -9.67,-4.33 -9.67,-9.67 0,-5.34 4.33,-9.67 9.67,-9.67z"/>
  <path class="fil2" d="M36.08 933.45c5.34,0 9.66,4.33 9.66,9.67 0,5.34 -4.32,9.67 -9.66,9.67 -5.34,0 -9.67,-4.33 -9.67,-9.67 0,-5.34 4.33,-9.67 9.67,-9.67z"/>
  <path class="fil2" d="M117.96 933.45c5.34,0 9.67,4.33 9.67,9.67 0,5.34 -4.33,9.67 -9.67,9.67 -5.34,0 -9.67,-4.33 -9.67,-9.67 0,-5.34 4.33,-9.67 9.67,-9.67z"/>
  <path class="fil2" d="M199.84 852.1c5.34,0 9.67,4.33 9.67,9.67 0,5.34 -4.33,9.67 -9.67,9.67 -5.34,0 -9.67,-4.33 -9.67,-9.67 0,-5.34 4.33,-9.67 9.67,-9.67z"/>
  <path class="fil2" d="M281.71 852.1c5.33,0 9.66,4.33 9.66,9.67 0,5.34 -4.33,9.67 -9.66,9.67 -5.34,0 -9.67,-4.33 -9.67,-9.67 0,-5.34 4.33,-9.67 9.67,-9.67z"/>
  <path class="fil2" d="M199.84 933.45c5.34,0 9.67,4.33 9.67,9.67 0,5.34 -4.33,9.67 -9.67,9.67 -5.34,0 -9.67,-4.33 -9.67,-9.67 0,-5.34 4.33,-9.67 9.67,-9.67z"/>
  <path class="fil2" d="M281.71 933.45c5.33,0 9.66,4.33 9.66,9.67 0,5.34 -4.33,9.67 -9.66,9.67 -5.34,0 -9.67,-4.33 -9.67,-9.67 0,-5.34 4.33,-9.67 9.67,-9.67z"/>
  <path class="fil2" d="M36.08 1016.96c5.34,0 9.66,4.33 9.66,9.67 0,5.34 -4.32,9.67 -9.66,9.67 -5.34,0 -9.67,-4.33 -9.67,-9.67 0,-5.34 4.33,-9.67 9.67,-9.67z"/>
  <path class="fil2" d="M117.96 1016.96c5.34,0 9.67,4.33 9.67,9.67 0,5.34 -4.33,9.67 -9.67,9.67 -5.34,0 -9.67,-4.33 -9.67,-9.67 0,-5.34 4.33,-9.67 9.67,-9.67z"/>
  <path class="fil2" d="M36.08 1097.31c5.34,0 9.66,4.33 9.66,9.67 0,5.33 -4.32,9.66 -9.66,9.66 -5.34,0 -9.67,-4.33 -9.67,-9.66 0,-5.34 4.33,-9.67 9.67,-9.67z"/>
  <path class="fil2" d="M117.96 1097.31c5.34,0 9.67,4.33 9.67,9.67 0,5.33 -4.33,9.66 -9.67,9.66 -5.34,0 -9.67,-4.33 -9.67,-9.66 0,-5.34 4.33,-9.67 9.67,-9.67z"/>
  <path class="fil2" d="M199.84 1016.96c5.34,0 9.67,4.33 9.67,9.67 0,5.34 -4.33,9.67 -9.67,9.67 -5.34,0 -9.67,-4.33 -9.67,-9.67 0,-5.34 4.33,-9.67 9.67,-9.67z"/>
  <path class="fil2" d="M281.71 1016.96c5.33,0 9.66,4.33 9.66,9.67 0,5.34 -4.33,9.67 -9.66,9.67 -5.34,0 -9.67,-4.33 -9.67,-9.67 0,-5.34 4.33,-9.67 9.67,-9.67z"/>
  <path class="fil2" d="M199.84 1097.31c5.34,0 9.67,4.33 9.67,9.67 0,5.33 -4.33,9.66 -9.67,9.66 -5.34,0 -9.67,-4.33 -9.67,-9.66 0,-5.34 4.33,-9.67 9.67,-9.67z"/>
  <path class="fil2" d="M281.71 1097.31c5.33,0 9.66,4.33 9.66,9.67 0,5.33 -4.33,9.66 -9.66,9.66 -5.34,0 -9.67,-4.33 -9.67,-9.66 0,-5.34 4.33,-9.67 9.67,-9.67z"/>
  <path class="fil2" d="M363.6 1016.96c5.34,0 9.67,4.33 9.67,9.67 0,5.34 -4.33,9.67 -9.67,9.67 -5.34,0 -9.66,-4.33 -9.66,-9.67 0,-5.34 4.32,-9.67 9.66,-9.67z"/>
  <path class="fil2" d="M445.48 1016.96c5.33,0 9.66,4.33 9.66,9.67 0,5.34 -4.33,9.67 -9.66,9.67 -5.34,0 -9.67,-4.33 -9.67,-9.67 0,-5.34 4.33,-9.67 9.67,-9.67z"/>
  <path class="fil2" d="M527.36 1016.96c5.33,0 9.66,4.33 9.66,9.67 0,5.34 -4.33,9.67 -9.66,9.67 -5.34,0 -9.67,-4.33 -9.67,-9.67 0,-5.34 4.33,-9.67 9.67,-9.67z"/>
  <path class="fil2" d="M609.23 1016.96c5.34,0 9.67,4.33 9.67,9.67 0,5.34 -4.33,9.67 -9.67,9.67 -5.34,0 -9.67,-4.33 -9.67,-9.67 0,-5.34 4.33,-9.67 9.67,-9.67z"/>
  <path class="fil2" d="M363.6 1098.1c5.34,0 9.67,4.33 9.67,9.67 0,5.34 -4.33,9.67 -9.67,9.67 -5.34,0 -9.66,-4.33 -9.66,-9.67 0,-5.34 4.32,-9.67 9.66,-9.67z"/>
  <path class="fil2" d="M445.48 1098.1c5.33,0 9.66,4.33 9.66,9.67 0,5.34 -4.33,9.67 -9.66,9.67 -5.34,0 -9.67,-4.33 -9.67,-9.67 0,-5.34 4.33,-9.67 9.67,-9.67z"/>
  <path class="fil2" d="M527.36 1098.1c5.33,0 9.66,4.33 9.66,9.67 0,5.34 -4.33,9.67 -9.66,9.67 -5.34,0 -9.67,-4.33 -9.67,-9.67 0,-5.34 4.33,-9.67 9.67,-9.67z"/>
  <path class="fil2" d="M609.23 1098.1c5.34,0 9.67,4.33 9.67,9.67 0,5.34 -4.33,9.67 -9.67,9.67 -5.34,0 -9.67,-4.33 -9.67,-9.67 0,-5.34 4.33,-9.67 9.67,-9.67z"/>
  <path class="fil2" d="M363.6 934.81c5.34,0 9.67,4.33 9.67,9.66 0,5.34 -4.33,9.67 -9.67,9.67 -5.34,0 -9.66,-4.33 -9.66,-9.67 0,-5.33 4.32,-9.66 9.66,-9.66z"/>
  <path class="fil2" d="M445.48 934.81c5.33,0 9.66,4.33 9.66,9.66 0,5.34 -4.33,9.67 -9.66,9.67 -5.34,0 -9.67,-4.33 -9.67,-9.67 0,-5.33 4.33,-9.66 9.67,-9.66z"/>
  <path class="fil2" d="M527.36 934.81c5.33,0 9.66,4.33 9.66,9.66 0,5.34 -4.33,9.67 -9.66,9.67 -5.34,0 -9.67,-4.33 -9.67,-9.67 0,-5.33 4.33,-9.66 9.67,-9.66z"/>
  <path class="fil2" d="M609.23 934.81c5.34,0 9.67,4.33 9.67,9.66 0,5.34 -4.33,9.67 -9.67,9.67 -5.34,0 -9.67,-4.33 -9.67,-9.67 0,-5.33 4.33,-9.66 9.67,-9.66z"/>
  <path class="fil2" d="M363.6 852.99c5.34,0 9.67,4.33 9.67,9.66 0,5.34 -4.33,9.67 -9.67,9.67 -5.34,0 -9.66,-4.33 -9.66,-9.67 0,-5.33 4.32,-9.66 9.66,-9.66z"/>
  <path class="fil2" d="M445.48 852.99c5.33,0 9.66,4.33 9.66,9.66 0,5.34 -4.33,9.67 -9.66,9.67 -5.34,0 -9.67,-4.33 -9.67,-9.67 0,-5.33 4.33,-9.66 9.67,-9.66z"/>
  <path class="fil2" d="M527.36 852.99c5.33,0 9.66,4.33 9.66,9.66 0,5.34 -4.33,9.67 -9.66,9.67 -5.34,0 -9.67,-4.33 -9.67,-9.67 0,-5.33 4.33,-9.66 9.67,-9.66z"/>
  <path class="fil2" d="M609.23 852.99c5.34,0 9.67,4.33 9.67,9.66 0,5.34 -4.33,9.67 -9.67,9.67 -5.34,0 -9.67,-4.33 -9.67,-9.67 0,-5.33 4.33,-9.66 9.67,-9.66z"/>
  <path class="fil2" d="M363.6 1179.96c5.34,0 9.67,4.33 9.67,9.67 0,5.34 -4.33,9.66 -9.67,9.66 -5.34,0 -9.66,-4.32 -9.66,-9.66 0,-5.34 4.32,-9.67 9.66,-9.67z"/>
  <path class="fil2" d="M445.48 1179.96c5.33,0 9.66,4.33 9.66,9.67 0,5.34 -4.33,9.66 -9.66,9.66 -5.34,0 -9.67,-4.32 -9.67,-9.66 0,-5.34 4.33,-9.67 9.67,-9.67z"/>
  <path class="fil2" d="M527.36 1179.96c5.33,0 9.66,4.33 9.66,9.67 0,5.34 -4.33,9.66 -9.66,9.66 -5.34,0 -9.67,-4.32 -9.67,-9.66 0,-5.34 4.33,-9.67 9.67,-9.67z"/>
  <path class="fil2" d="M609.23 1179.96c5.34,0 9.67,4.33 9.67,9.67 0,5.34 -4.33,9.66 -9.67,9.66 -5.34,0 -9.67,-4.32 -9.67,-9.66 0,-5.34 4.33,-9.67 9.67,-9.67z"/>
  <path class="fil2" d="M34.76 1179.96c5.34,0 9.67,4.33 9.67,9.67 0,5.34 -4.33,9.66 -9.67,9.66 -5.34,0 -9.67,-4.32 -9.67,-9.66 0,-5.34 4.33,-9.67 9.67,-9.67z"/>
  <path class="fil2" d="M116.63 1179.96c5.34,0 9.67,4.33 9.67,9.67 0,5.34 -4.33,9.66 -9.67,9.66 -5.33,0 -9.66,-4.32 -9.66,-9.66 0,-5.34 4.33,-9.67 9.66,-9.67z"/>
  <path class="fil2" d="M198.51 1179.96c5.34,0 9.67,4.33 9.67,9.67 0,5.34 -4.33,9.66 -9.67,9.66 -5.33,0 -9.66,-4.32 -9.66,-9.66 0,-5.34 4.33,-9.67 9.66,-9.67z"/>
  <path class="fil2" d="M280.39 1179.96c5.34,0 9.67,4.33 9.67,9.67 0,5.34 -4.33,9.66 -9.67,9.66 -5.34,0 -9.67,-4.32 -9.67,-9.66 0,-5.34 4.33,-9.67 9.67,-9.67z"/>
  <path class="fil2" d="M691.11 852.1c5.34,0 9.67,4.33 9.67,9.67 0,5.34 -4.33,9.67 -9.67,9.67 -5.34,0 -9.66,-4.33 -9.66,-9.67 0,-5.34 4.32,-9.67 9.66,-9.67z"/>
  <path class="fil2" d="M772.99 852.1c5.33,0 9.66,4.33 9.66,9.67 0,5.34 -4.33,9.67 -9.66,9.67 -5.34,0 -9.67,-4.33 -9.67,-9.67 0,-5.34 4.33,-9.67 9.67,-9.67z"/>
  <path class="fil2" d="M691.11 933.45c5.34,0 9.67,4.33 9.67,9.67 0,5.34 -4.33,9.67 -9.67,9.67 -5.34,0 -9.66,-4.33 -9.66,-9.67 0,-5.34 4.32,-9.67 9.66,-9.67z"/>
  <path class="fil2" d="M772.99 933.45c5.33,0 9.66,4.33 9.66,9.67 0,5.34 -4.33,9.67 -9.66,9.67 -5.34,0 -9.67,-4.33 -9.67,-9.67 0,-5.34 4.33,-9.67 9.67,-9.67z"/>
  <path class="fil2" d="M854.87 852.1c5.33,0 9.66,4.33 9.66,9.67 0,5.34 -4.33,9.67 -9.66,9.67 -5.34,0 -9.67,-4.33 -9.67,-9.67 0,-5.34 4.33,-9.67 9.67,-9.67z"/>
  <path class="fil2" d="M936.74 852.1c5.34,0 9.67,4.33 9.67,9.67 0,5.34 -4.33,9.67 -9.67,9.67 -5.34,0 -9.67,-4.33 -9.67,-9.67 0,-5.34 4.33,-9.67 9.67,-9.67z"/>
  <path class="fil2" d="M854.87 933.45c5.33,0 9.66,4.33 9.66,9.67 0,5.34 -4.33,9.67 -9.66,9.67 -5.34,0 -9.67,-4.33 -9.67,-9.67 0,-5.34 4.33,-9.67 9.67,-9.67z"/>
  <path class="fil2" d="M936.74 933.45c5.34,0 9.67,4.33 9.67,9.67 0,5.34 -4.33,9.67 -9.67,9.67 -5.34,0 -9.67,-4.33 -9.67,-9.67 0,-5.34 4.33,-9.67 9.67,-9.67z"/>
  <path class="fil2" d="M691.11 1016.96c5.34,0 9.67,4.33 9.67,9.67 0,5.34 -4.33,9.67 -9.67,9.67 -5.34,0 -9.66,-4.33 -9.66,-9.67 0,-5.34 4.32,-9.67 9.66,-9.67z"/>
  <path class="fil2" d="M772.99 1016.96c5.33,0 9.66,4.33 9.66,9.67 0,5.34 -4.33,9.67 -9.66,9.67 -5.34,0 -9.67,-4.33 -9.67,-9.67 0,-5.34 4.33,-9.67 9.67,-9.67z"/>
  <path class="fil2" d="M691.11 1097.31c5.34,0 9.67,4.33 9.67,9.67 0,5.33 -4.33,9.66 -9.67,9.66 -5.34,0 -9.66,-4.33 -9.66,-9.66 0,-5.34 4.32,-9.67 9.66,-9.67z"/>
  <path class="fil2" d="M772.99 1097.31c5.33,0 9.66,4.33 9.66,9.67 0,5.33 -4.33,9.66 -9.66,9.66 -5.34,0 -9.67,-4.33 -9.67,-9.66 0,-5.34 4.33,-9.67 9.67,-9.67z"/>
  <path class="fil2" d="M854.87 1016.96c5.33,0 9.66,4.33 9.66,9.67 0,5.34 -4.33,9.67 -9.66,9.67 -5.34,0 -9.67,-4.33 -9.67,-9.67 0,-5.34 4.33,-9.67 9.67,-9.67z"/>
  <path class="fil2" d="M936.74 1016.96c5.34,0 9.67,4.33 9.67,9.67 0,5.34 -4.33,9.67 -9.67,9.67 -5.34,0 -9.67,-4.33 -9.67,-9.67 0,-5.34 4.33,-9.67 9.67,-9.67z"/>
  <path class="fil2" d="M854.87 1097.31c5.33,0 9.66,4.33 9.66,9.67 0,5.33 -4.33,9.66 -9.66,9.66 -5.34,0 -9.67,-4.33 -9.67,-9.66 0,-5.34 4.33,-9.67 9.67,-9.67z"/>
  <path class="fil2" d="M936.74 1097.31c5.34,0 9.67,4.33 9.67,9.67 0,5.33 -4.33,9.66 -9.67,9.66 -5.34,0 -9.67,-4.33 -9.67,-9.66 0,-5.34 4.33,-9.67 9.67,-9.67z"/>
  <path class="fil2" d="M1018.63 1016.96c5.33,0 9.66,4.33 9.66,9.67 0,5.34 -4.33,9.67 -9.66,9.67 -5.34,0 -9.67,-4.33 -9.67,-9.67 0,-5.34 4.33,-9.67 9.67,-9.67z"/>
  <path class="fil2" d="M1100.5 1016.96c5.34,0 9.67,4.33 9.67,9.67 0,5.34 -4.33,9.67 -9.67,9.67 -5.34,0 -9.67,-4.33 -9.67,-9.67 0,-5.34 4.33,-9.67 9.67,-9.67z"/>
  <path class="fil2" d="M1182.38 1016.96c5.34,0 9.67,4.33 9.67,9.67 0,5.34 -4.33,9.67 -9.67,9.67 -5.34,0 -9.67,-4.33 -9.67,-9.67 0,-5.34 4.33,-9.67 9.67,-9.67z"/>
  <path class="fil2" d="M1264.26 1016.96c5.34,0 9.67,4.33 9.67,9.67 0,5.34 -4.33,9.67 -9.67,9.67 -5.33,0 -9.66,-4.33 -9.66,-9.67 0,-5.34 4.33,-9.67 9.66,-9.67z"/>
  <path class="fil2" d="M1018.63 1098.1c5.33,0 9.66,4.33 9.66,9.67 0,5.34 -4.33,9.67 -9.66,9.67 -5.34,0 -9.67,-4.33 -9.67,-9.67 0,-5.34 4.33,-9.67 9.67,-9.67z"/>
  <path class="fil2" d="M1100.5 1098.1c5.34,0 9.67,4.33 9.67,9.67 0,5.34 -4.33,9.67 -9.67,9.67 -5.34,0 -9.67,-4.33 -9.67,-9.67 0,-5.34 4.33,-9.67 9.67,-9.67z"/>
  <path class="fil2" d="M1182.38 1098.1c5.34,0 9.67,4.33 9.67,9.67 0,5.34 -4.33,9.67 -9.67,9.67 -5.34,0 -9.67,-4.33 -9.67,-9.67 0,-5.34 4.33,-9.67 9.67,-9.67z"/>
  <path class="fil2" d="M1264.26 1098.1c5.34,0 9.67,4.33 9.67,9.67 0,5.34 -4.33,9.67 -9.67,9.67 -5.33,0 -9.66,-4.33 -9.66,-9.67 0,-5.34 4.33,-9.67 9.66,-9.67z"/>
  <path class="fil2" d="M1018.63 934.81c5.33,0 9.66,4.33 9.66,9.66 0,5.34 -4.33,9.67 -9.66,9.67 -5.34,0 -9.67,-4.33 -9.67,-9.67 0,-5.33 4.33,-9.66 9.67,-9.66z"/>
  <path class="fil2" d="M1100.5 934.81c5.34,0 9.67,4.33 9.67,9.66 0,5.34 -4.33,9.67 -9.67,9.67 -5.34,0 -9.67,-4.33 -9.67,-9.67 0,-5.33 4.33,-9.66 9.67,-9.66z"/>
  <path class="fil2" d="M1182.38 934.81c5.34,0 9.67,4.33 9.67,9.66 0,5.34 -4.33,9.67 -9.67,9.67 -5.34,0 -9.67,-4.33 -9.67,-9.67 0,-5.33 4.33,-9.66 9.67,-9.66z"/>
  <path class="fil2" d="M1264.26 934.81c5.34,0 9.67,4.33 9.67,9.66 0,5.34 -4.33,9.67 -9.67,9.67 -5.33,0 -9.66,-4.33 -9.66,-9.67 0,-5.33 4.33,-9.66 9.66,-9.66z"/>
  <path class="fil2" d="M1018.63 852.99c5.33,0 9.66,4.33 9.66,9.66 0,5.34 -4.33,9.67 -9.66,9.67 -5.34,0 -9.67,-4.33 -9.67,-9.67 0,-5.33 4.33,-9.66 9.67,-9.66z"/>
  <path class="fil2" d="M1100.5 852.99c5.34,0 9.67,4.33 9.67,9.66 0,5.34 -4.33,9.67 -9.67,9.67 -5.34,0 -9.67,-4.33 -9.67,-9.67 0,-5.33 4.33,-9.66 9.67,-9.66z"/>
  <path class="fil2" d="M1182.38 852.99c5.34,0 9.67,4.33 9.67,9.66 0,5.34 -4.33,9.67 -9.67,9.67 -5.34,0 -9.67,-4.33 -9.67,-9.67 0,-5.33 4.33,-9.66 9.67,-9.66z"/>
  <path class="fil2" d="M1264.26 852.99c5.34,0 9.67,4.33 9.67,9.66 0,5.34 -4.33,9.67 -9.67,9.67 -5.33,0 -9.66,-4.33 -9.66,-9.67 0,-5.33 4.33,-9.66 9.66,-9.66z"/>
  <path class="fil2" d="M1018.63 1179.96c5.33,0 9.66,4.33 9.66,9.67 0,5.34 -4.33,9.66 -9.66,9.66 -5.34,0 -9.67,-4.32 -9.67,-9.66 0,-5.34 4.33,-9.67 9.67,-9.67z"/>
  <path class="fil2" d="M1100.5 1179.96c5.34,0 9.67,4.33 9.67,9.67 0,5.34 -4.33,9.66 -9.67,9.66 -5.34,0 -9.67,-4.32 -9.67,-9.66 0,-5.34 4.33,-9.67 9.67,-9.67z"/>
  <path class="fil2" d="M1182.38 1179.96c5.34,0 9.67,4.33 9.67,9.67 0,5.34 -4.33,9.66 -9.67,9.66 -5.34,0 -9.67,-4.32 -9.67,-9.66 0,-5.34 4.33,-9.67 9.67,-9.67z"/>
  <path class="fil2" d="M1264.26 1179.96c5.34,0 9.67,4.33 9.67,9.67 0,5.34 -4.33,9.66 -9.67,9.66 -5.33,0 -9.66,-4.32 -9.66,-9.66 0,-5.34 4.33,-9.67 9.66,-9.67z"/>
  <path class="fil2" d="M689.79 1179.96c5.33,0 9.66,4.33 9.66,9.67 0,5.34 -4.33,9.66 -9.66,9.66 -5.34,0 -9.67,-4.32 -9.67,-9.66 0,-5.34 4.33,-9.67 9.67,-9.67z"/>
  <path class="fil2" d="M771.66 1179.96c5.34,0 9.67,4.33 9.67,9.67 0,5.34 -4.33,9.66 -9.67,9.66 -5.34,0 -9.67,-4.32 -9.67,-9.66 0,-5.34 4.33,-9.67 9.67,-9.67z"/>
  <path class="fil2" d="M853.55 1179.96c5.34,0 9.67,4.33 9.67,9.67 0,5.34 -4.33,9.66 -9.67,9.66 -5.34,0 -9.67,-4.32 -9.67,-9.66 0,-5.34 4.33,-9.67 9.67,-9.67z"/>
  <path class="fil2" d="M935.42 1179.96c5.34,0 9.67,4.33 9.67,9.67 0,5.34 -4.33,9.66 -9.67,9.66 -5.34,0 -9.66,-4.32 -9.66,-9.66 0,-5.34 4.32,-9.67 9.66,-9.67z"/>
  <path class="fil2" d="M1346.25 1016.96c5.34,0 9.67,4.33 9.67,9.67 0,5.34 -4.33,9.67 -9.67,9.67 -5.34,0 -9.66,-4.33 -9.66,-9.67 0,-5.34 4.32,-9.67 9.66,-9.67z"/>
  <path class="fil2" d="M1346.25 1098.1c5.34,0 9.67,4.33 9.67,9.67 0,5.34 -4.33,9.67 -9.67,9.67 -5.34,0 -9.66,-4.33 -9.66,-9.67 0,-5.34 4.32,-9.67 9.66,-9.67z"/>
  <path class="fil2" d="M1346.25 934.81c5.34,0 9.67,4.33 9.67,9.66 0,5.34 -4.33,9.67 -9.67,9.67 -5.34,0 -9.66,-4.33 -9.66,-9.67 0,-5.33 4.32,-9.66 9.66,-9.66z"/>
  <path class="fil2" d="M1346.25 852.99c5.34,0 9.67,4.33 9.67,9.66 0,5.34 -4.33,9.67 -9.67,9.67 -5.34,0 -9.66,-4.33 -9.66,-9.67 0,-5.33 4.32,-9.66 9.66,-9.66z"/>
  <path class="fil2" d="M1346.25 1179.96c5.34,0 9.67,4.33 9.67,9.67 0,5.34 -4.33,9.66 -9.67,9.66 -5.34,0 -9.66,-4.32 -9.66,-9.66 0,-5.34 4.32,-9.67 9.66,-9.67z"/>
  <path class="fil2" d="M1426.05 33.29c5.34,0 9.66,4.33 9.66,9.67 0,5.34 -4.32,9.66 -9.66,9.66 -5.34,0 -9.67,-4.32 -9.67,-9.66 0,-5.34 4.33,-9.67 9.67,-9.67z"/>
  <path class="fil2" d="M1507.92 33.29c5.34,0 9.67,4.33 9.67,9.67 0,5.34 -4.33,9.66 -9.67,9.66 -5.34,0 -9.67,-4.32 -9.67,-9.66 0,-5.34 4.33,-9.67 9.67,-9.67z"/>
  <path class="fil2" d="M1426.05 114.64c5.34,0 9.66,4.33 9.66,9.67 0,5.34 -4.32,9.66 -9.66,9.66 -5.34,0 -9.67,-4.32 -9.67,-9.66 0,-5.34 4.33,-9.67 9.67,-9.67z"/>
  <path class="fil2" d="M1507.92 114.64c5.34,0 9.67,4.33 9.67,9.67 0,5.34 -4.33,9.66 -9.67,9.66 -5.34,0 -9.67,-4.32 -9.67,-9.66 0,-5.34 4.33,-9.67 9.67,-9.67z"/>
  <path class="fil2" d="M1589.8 33.29c5.34,0 9.67,4.33 9.67,9.67 0,5.34 -4.33,9.66 -9.67,9.66 -5.34,0 -9.67,-4.32 -9.67,-9.66 0,-5.34 4.33,-9.67 9.67,-9.67z"/>
  <path class="fil2" d="M1671.68 33.29c5.33,0 9.66,4.33 9.66,9.67 0,5.34 -4.33,9.66 -9.66,9.66 -5.34,0 -9.67,-4.32 -9.67,-9.66 0,-5.34 4.33,-9.67 9.67,-9.67z"/>
  <path class="fil2" d="M1589.8 114.64c5.34,0 9.67,4.33 9.67,9.67 0,5.34 -4.33,9.66 -9.67,9.66 -5.34,0 -9.67,-4.32 -9.67,-9.66 0,-5.34 4.33,-9.67 9.67,-9.67z"/>
  <path class="fil2" d="M1671.68 114.64c5.33,0 9.66,4.33 9.66,9.67 0,5.34 -4.33,9.66 -9.66,9.66 -5.34,0 -9.67,-4.32 -9.67,-9.66 0,-5.34 4.33,-9.67 9.67,-9.67z"/>
  <path class="fil2" d="M1426.05 198.15c5.34,0 9.66,4.33 9.66,9.67 0,5.34 -4.32,9.67 -9.66,9.67 -5.34,0 -9.67,-4.33 -9.67,-9.67 0,-5.34 4.33,-9.67 9.67,-9.67z"/>
  <path class="fil2" d="M1507.92 198.15c5.34,0 9.67,4.33 9.67,9.67 0,5.34 -4.33,9.67 -9.67,9.67 -5.34,0 -9.67,-4.33 -9.67,-9.67 0,-5.34 4.33,-9.67 9.67,-9.67z"/>
  <path class="fil2" d="M1426.05 278.5c5.34,0 9.66,4.33 9.66,9.66 0,5.34 -4.32,9.67 -9.66,9.67 -5.34,0 -9.67,-4.33 -9.67,-9.67 0,-5.33 4.33,-9.66 9.67,-9.66z"/>
  <path class="fil2" d="M1507.92 278.5c5.34,0 9.67,4.33 9.67,9.66 0,5.34 -4.33,9.67 -9.67,9.67 -5.34,0 -9.67,-4.33 -9.67,-9.67 0,-5.33 4.33,-9.66 9.67,-9.66z"/>
  <path class="fil2" d="M1589.8 198.15c5.34,0 9.67,4.33 9.67,9.67 0,5.34 -4.33,9.67 -9.67,9.67 -5.34,0 -9.67,-4.33 -9.67,-9.67 0,-5.34 4.33,-9.67 9.67,-9.67z"/>
  <path class="fil2" d="M1671.68 198.15c5.33,0 9.66,4.33 9.66,9.67 0,5.34 -4.33,9.67 -9.66,9.67 -5.34,0 -9.67,-4.33 -9.67,-9.67 0,-5.34 4.33,-9.67 9.67,-9.67z"/>
  <path class="fil2" d="M1589.8 278.5c5.34,0 9.67,4.33 9.67,9.66 0,5.34 -4.33,9.67 -9.67,9.67 -5.34,0 -9.67,-4.33 -9.67,-9.67 0,-5.33 4.33,-9.66 9.67,-9.66z"/>
  <path class="fil2" d="M1671.68 278.5c5.33,0 9.66,4.33 9.66,9.66 0,5.34 -4.33,9.67 -9.66,9.67 -5.34,0 -9.67,-4.33 -9.67,-9.67 0,-5.33 4.33,-9.66 9.67,-9.66z"/>
  <path class="fil2" d="M1753.57 198.15c5.34,0 9.67,4.33 9.67,9.67 0,5.34 -4.33,9.67 -9.67,9.67 -5.34,0 -9.66,-4.33 -9.66,-9.67 0,-5.34 4.32,-9.67 9.66,-9.67z"/>
  <path class="fil2" d="M1835.44 198.15c5.33,0 9.66,4.33 9.66,9.67 0,5.34 -4.33,9.67 -9.66,9.67 -5.34,0 -9.67,-4.33 -9.67,-9.67 0,-5.34 4.33,-9.67 9.67,-9.67z"/>
  <path class="fil2" d="M1753.57 279.29c5.34,0 9.67,4.33 9.67,9.67 0,5.34 -4.33,9.67 -9.67,9.67 -5.34,0 -9.66,-4.33 -9.66,-9.67 0,-5.34 4.32,-9.67 9.66,-9.67z"/>
  <path class="fil2" d="M1835.44 279.29c5.33,0 9.66,4.33 9.66,9.67 0,5.34 -4.33,9.67 -9.66,9.67 -5.34,0 -9.67,-4.33 -9.67,-9.67 0,-5.34 4.33,-9.67 9.67,-9.67z"/>
  <path class="fil2" d="M1753.57 116c5.34,0 9.67,4.32 9.67,9.66 0,5.34 -4.33,9.67 -9.67,9.67 -5.34,0 -9.66,-4.33 -9.66,-9.67 0,-5.34 4.32,-9.66 9.66,-9.66z"/>
  <path class="fil2" d="M1835.44 116c5.33,0 9.66,4.32 9.66,9.66 0,5.34 -4.33,9.67 -9.66,9.67 -5.34,0 -9.67,-4.33 -9.67,-9.67 0,-5.34 4.33,-9.66 9.67,-9.66z"/>
  <path class="fil2" d="M1753.57 34.18c5.34,0 9.67,4.32 9.67,9.66 0,5.34 -4.33,9.67 -9.67,9.67 -5.34,0 -9.66,-4.33 -9.66,-9.67 0,-5.34 4.32,-9.66 9.66,-9.66z"/>
  <path class="fil2" d="M1835.44 34.18c5.33,0 9.66,4.32 9.66,9.66 0,5.34 -4.33,9.67 -9.66,9.67 -5.34,0 -9.67,-4.33 -9.67,-9.67 0,-5.34 4.33,-9.66 9.67,-9.66z"/>
  <path class="fil2" d="M1753.57 361.15c5.34,0 9.67,4.33 9.67,9.67 0,5.33 -4.33,9.66 -9.67,9.66 -5.34,0 -9.66,-4.33 -9.66,-9.66 0,-5.34 4.32,-9.67 9.66,-9.67z"/>
  <path class="fil2" d="M1835.44 361.15c5.33,0 9.66,4.33 9.66,9.67 0,5.33 -4.33,9.66 -9.66,9.66 -5.34,0 -9.67,-4.33 -9.67,-9.66 0,-5.34 4.33,-9.67 9.67,-9.67z"/>
  <path class="fil2" d="M1424.73 361.15c5.34,0 9.67,4.33 9.67,9.67 0,5.33 -4.33,9.66 -9.67,9.66 -5.34,0 -9.67,-4.33 -9.67,-9.66 0,-5.34 4.33,-9.67 9.67,-9.67z"/>
  <path class="fil2" d="M1506.6 361.15c5.34,0 9.67,4.33 9.67,9.67 0,5.33 -4.33,9.66 -9.67,9.66 -5.33,0 -9.66,-4.33 -9.66,-9.66 0,-5.34 4.33,-9.67 9.66,-9.67z"/>
  <path class="fil2" d="M1588.48 361.15c5.34,0 9.67,4.33 9.67,9.67 0,5.33 -4.33,9.66 -9.67,9.66 -5.33,0 -9.66,-4.33 -9.66,-9.66 0,-5.34 4.33,-9.67 9.66,-9.67z"/>
  <path class="fil2" d="M1670.35 361.15c5.34,0 9.67,4.33 9.67,9.67 0,5.33 -4.33,9.66 -9.67,9.66 -5.34,0 -9.67,-4.33 -9.67,-9.66 0,-5.34 4.33,-9.67 9.67,-9.67z"/>
  <path class="fil2" d="M1426.05 440.61c5.34,0 9.66,4.33 9.66,9.67 0,5.34 -4.32,9.66 -9.66,9.66 -5.34,0 -9.67,-4.32 -9.67,-9.66 0,-5.34 4.33,-9.67 9.67,-9.67z"/>
  <path class="fil2" d="M1507.92 440.61c5.34,0 9.67,4.33 9.67,9.67 0,5.34 -4.33,9.66 -9.67,9.66 -5.34,0 -9.67,-4.32 -9.67,-9.66 0,-5.34 4.33,-9.67 9.67,-9.67z"/>
  <path class="fil2" d="M1426.05 521.96c5.34,0 9.66,4.33 9.66,9.67 0,5.34 -4.32,9.66 -9.66,9.66 -5.34,0 -9.67,-4.32 -9.67,-9.66 0,-5.34 4.33,-9.67 9.67,-9.67z"/>
  <path class="fil2" d="M1507.92 521.96c5.34,0 9.67,4.33 9.67,9.67 0,5.34 -4.33,9.66 -9.67,9.66 -5.34,0 -9.67,-4.32 -9.67,-9.66 0,-5.34 4.33,-9.67 9.67,-9.67z"/>
  <path class="fil2" d="M1589.8 440.61c5.34,0 9.67,4.33 9.67,9.67 0,5.34 -4.33,9.66 -9.67,9.66 -5.34,0 -9.67,-4.32 -9.67,-9.66 0,-5.34 4.33,-9.67 9.67,-9.67z"/>
  <path class="fil2" d="M1671.68 440.61c5.33,0 9.66,4.33 9.66,9.67 0,5.34 -4.33,9.66 -9.66,9.66 -5.34,0 -9.67,-4.32 -9.67,-9.66 0,-5.34 4.33,-9.67 9.67,-9.67z"/>
  <path class="fil2" d="M1589.8 521.96c5.34,0 9.67,4.33 9.67,9.67 0,5.34 -4.33,9.66 -9.67,9.66 -5.34,0 -9.67,-4.32 -9.67,-9.66 0,-5.34 4.33,-9.67 9.67,-9.67z"/>
  <path class="fil2" d="M1671.68 521.96c5.33,0 9.66,4.33 9.66,9.67 0,5.34 -4.33,9.66 -9.66,9.66 -5.34,0 -9.67,-4.32 -9.67,-9.66 0,-5.34 4.33,-9.67 9.67,-9.67z"/>
  <path class="fil2" d="M1426.05 605.47c5.34,0 9.66,4.33 9.66,9.67 0,5.34 -4.32,9.66 -9.66,9.66 -5.34,0 -9.67,-4.32 -9.67,-9.66 0,-5.34 4.33,-9.67 9.67,-9.67z"/>
  <path class="fil2" d="M1507.92 605.47c5.34,0 9.67,4.33 9.67,9.67 0,5.34 -4.33,9.66 -9.67,9.66 -5.34,0 -9.67,-4.32 -9.67,-9.66 0,-5.34 4.33,-9.67 9.67,-9.67z"/>
  <path class="fil2" d="M1426.05 685.82c5.34,0 9.66,4.33 9.66,9.66 0,5.34 -4.32,9.67 -9.66,9.67 -5.34,0 -9.67,-4.33 -9.67,-9.67 0,-5.33 4.33,-9.66 9.67,-9.66z"/>
  <path class="fil2" d="M1507.92 685.82c5.34,0 9.67,4.33 9.67,9.66 0,5.34 -4.33,9.67 -9.67,9.67 -5.34,0 -9.67,-4.33 -9.67,-9.67 0,-5.33 4.33,-9.66 9.67,-9.66z"/>
  <path class="fil2" d="M1589.8 605.47c5.34,0 9.67,4.33 9.67,9.67 0,5.34 -4.33,9.66 -9.67,9.66 -5.34,0 -9.67,-4.32 -9.67,-9.66 0,-5.34 4.33,-9.67 9.67,-9.67z"/>
  <path class="fil2" d="M1671.68 605.47c5.33,0 9.66,4.33 9.66,9.67 0,5.34 -4.33,9.66 -9.66,9.66 -5.34,0 -9.67,-4.32 -9.67,-9.66 0,-5.34 4.33,-9.67 9.67,-9.67z"/>
  <path class="fil2" d="M1589.8 685.82c5.34,0 9.67,4.33 9.67,9.66 0,5.34 -4.33,9.67 -9.67,9.67 -5.34,0 -9.67,-4.33 -9.67,-9.67 0,-5.33 4.33,-9.66 9.67,-9.66z"/>
  <path class="fil2" d="M1671.68 685.82c5.33,0 9.66,4.33 9.66,9.66 0,5.34 -4.33,9.67 -9.66,9.67 -5.34,0 -9.67,-4.33 -9.67,-9.67 0,-5.33 4.33,-9.66 9.67,-9.66z"/>
  <path class="fil2" d="M1753.57 605.47c5.34,0 9.67,4.33 9.67,9.67 0,5.34 -4.33,9.66 -9.67,9.66 -5.34,0 -9.66,-4.32 -9.66,-9.66 0,-5.34 4.32,-9.67 9.66,-9.67z"/>
  <path class="fil2" d="M1835.44 605.47c5.33,0 9.66,4.33 9.66,9.67 0,5.34 -4.33,9.66 -9.66,9.66 -5.34,0 -9.67,-4.32 -9.67,-9.66 0,-5.34 4.33,-9.67 9.67,-9.67z"/>
  <path class="fil2" d="M1753.57 686.61c5.34,0 9.67,4.33 9.67,9.67 0,5.34 -4.33,9.67 -9.67,9.67 -5.34,0 -9.66,-4.33 -9.66,-9.67 0,-5.34 4.32,-9.67 9.66,-9.67z"/>
  <path class="fil2" d="M1835.44 686.61c5.33,0 9.66,4.33 9.66,9.67 0,5.34 -4.33,9.67 -9.66,9.67 -5.34,0 -9.67,-4.33 -9.67,-9.67 0,-5.34 4.33,-9.67 9.67,-9.67z"/>
  <path class="fil2" d="M1753.57 523.32c5.34,0 9.67,4.32 9.67,9.66 0,5.34 -4.33,9.67 -9.67,9.67 -5.34,0 -9.66,-4.33 -9.66,-9.67 0,-5.34 4.32,-9.66 9.66,-9.66z"/>
  <path class="fil2" d="M1835.44 523.32c5.33,0 9.66,4.32 9.66,9.66 0,5.34 -4.33,9.67 -9.66,9.67 -5.34,0 -9.67,-4.33 -9.67,-9.67 0,-5.34 4.33,-9.66 9.67,-9.66z"/>
  <path class="fil2" d="M1753.57 441.5c5.34,0 9.67,4.32 9.67,9.66 0,5.34 -4.33,9.67 -9.67,9.67 -5.34,0 -9.66,-4.33 -9.66,-9.67 0,-5.34 4.32,-9.66 9.66,-9.66z"/>
  <path class="fil2" d="M1835.44 441.5c5.33,0 9.66,4.32 9.66,9.66 0,5.34 -4.33,9.67 -9.66,9.67 -5.34,0 -9.67,-4.33 -9.67,-9.67 0,-5.34 4.33,-9.66 9.67,-9.66z"/>
  <path class="fil2" d="M1753.57 768.47c5.34,0 9.67,4.33 9.67,9.67 0,5.33 -4.33,9.66 -9.67,9.66 -5.34,0 -9.66,-4.33 -9.66,-9.66 0,-5.34 4.32,-9.67 9.66,-9.67z"/>
  <path class="fil2" d="M1835.44 768.47c5.33,0 9.66,4.33 9.66,9.67 0,5.33 -4.33,9.66 -9.66,9.66 -5.34,0 -9.67,-4.33 -9.67,-9.66 0,-5.34 4.33,-9.67 9.67,-9.67z"/>
  <path class="fil2" d="M1424.73 768.47c5.34,0 9.67,4.33 9.67,9.67 0,5.33 -4.33,9.66 -9.67,9.66 -5.34,0 -9.67,-4.33 -9.67,-9.66 0,-5.34 4.33,-9.67 9.67,-9.67z"/>
  <path class="fil2" d="M1506.6 768.47c5.34,0 9.67,4.33 9.67,9.67 0,5.33 -4.33,9.66 -9.67,9.66 -5.33,0 -9.66,-4.33 -9.66,-9.66 0,-5.34 4.33,-9.67 9.66,-9.67z"/>
  <path class="fil2" d="M1588.48 768.47c5.34,0 9.67,4.33 9.67,9.67 0,5.33 -4.33,9.66 -9.67,9.66 -5.33,0 -9.66,-4.33 -9.66,-9.66 0,-5.34 4.33,-9.67 9.66,-9.67z"/>
  <path class="fil2" d="M1670.35 768.47c5.34,0 9.67,4.33 9.67,9.67 0,5.33 -4.33,9.66 -9.67,9.66 -5.34,0 -9.67,-4.33 -9.67,-9.66 0,-5.34 4.33,-9.67 9.67,-9.67z"/>
  <path class="fil2" d="M1426.05 852.1c5.34,0 9.66,4.33 9.66,9.67 0,5.34 -4.32,9.67 -9.66,9.67 -5.34,0 -9.67,-4.33 -9.67,-9.67 0,-5.34 4.33,-9.67 9.67,-9.67z"/>
  <path class="fil2" d="M1507.92 852.1c5.34,0 9.67,4.33 9.67,9.67 0,5.34 -4.33,9.67 -9.67,9.67 -5.34,0 -9.67,-4.33 -9.67,-9.67 0,-5.34 4.33,-9.67 9.67,-9.67z"/>
  <path class="fil2" d="M1426.05 933.45c5.34,0 9.66,4.33 9.66,9.67 0,5.34 -4.32,9.67 -9.66,9.67 -5.34,0 -9.67,-4.33 -9.67,-9.67 0,-5.34 4.33,-9.67 9.67,-9.67z"/>
  <path class="fil2" d="M1507.92 933.45c5.34,0 9.67,4.33 9.67,9.67 0,5.34 -4.33,9.67 -9.67,9.67 -5.34,0 -9.67,-4.33 -9.67,-9.67 0,-5.34 4.33,-9.67 9.67,-9.67z"/>
  <path class="fil2" d="M1589.8 852.1c5.34,0 9.67,4.33 9.67,9.67 0,5.34 -4.33,9.67 -9.67,9.67 -5.34,0 -9.67,-4.33 -9.67,-9.67 0,-5.34 4.33,-9.67 9.67,-9.67z"/>
  <path class="fil2" d="M1671.68 852.1c5.33,0 9.66,4.33 9.66,9.67 0,5.34 -4.33,9.67 -9.66,9.67 -5.34,0 -9.67,-4.33 -9.67,-9.67 0,-5.34 4.33,-9.67 9.67,-9.67z"/>
  <path class="fil2" d="M1589.8 933.45c5.34,0 9.67,4.33 9.67,9.67 0,5.34 -4.33,9.67 -9.67,9.67 -5.34,0 -9.67,-4.33 -9.67,-9.67 0,-5.34 4.33,-9.67 9.67,-9.67z"/>
  <path class="fil2" d="M1671.68 933.45c5.33,0 9.66,4.33 9.66,9.67 0,5.34 -4.33,9.67 -9.66,9.67 -5.34,0 -9.67,-4.33 -9.67,-9.67 0,-5.34 4.33,-9.67 9.67,-9.67z"/>
  <path class="fil2" d="M1426.05 1016.96c5.34,0 9.66,4.33 9.66,9.67 0,5.34 -4.32,9.67 -9.66,9.67 -5.34,0 -9.67,-4.33 -9.67,-9.67 0,-5.34 4.33,-9.67 9.67,-9.67z"/>
  <path class="fil2" d="M1507.92 1016.96c5.34,0 9.67,4.33 9.67,9.67 0,5.34 -4.33,9.67 -9.67,9.67 -5.34,0 -9.67,-4.33 -9.67,-9.67 0,-5.34 4.33,-9.67 9.67,-9.67z"/>
  <path class="fil2" d="M1426.05 1097.31c5.34,0 9.66,4.33 9.66,9.67 0,5.33 -4.32,9.66 -9.66,9.66 -5.34,0 -9.67,-4.33 -9.67,-9.66 0,-5.34 4.33,-9.67 9.67,-9.67z"/>
  <path class="fil2" d="M1507.92 1097.31c5.34,0 9.67,4.33 9.67,9.67 0,5.33 -4.33,9.66 -9.67,9.66 -5.34,0 -9.67,-4.33 -9.67,-9.66 0,-5.34 4.33,-9.67 9.67,-9.67z"/>
  <path class="fil2" d="M1589.8 1016.96c5.34,0 9.67,4.33 9.67,9.67 0,5.34 -4.33,9.67 -9.67,9.67 -5.34,0 -9.67,-4.33 -9.67,-9.67 0,-5.34 4.33,-9.67 9.67,-9.67z"/>
  <path class="fil2" d="M1671.68 1016.96c5.33,0 9.66,4.33 9.66,9.67 0,5.34 -4.33,9.67 -9.66,9.67 -5.34,0 -9.67,-4.33 -9.67,-9.67 0,-5.34 4.33,-9.67 9.67,-9.67z"/>
  <path class="fil2" d="M1589.8 1097.31c5.34,0 9.67,4.33 9.67,9.67 0,5.33 -4.33,9.66 -9.67,9.66 -5.34,0 -9.67,-4.33 -9.67,-9.66 0,-5.34 4.33,-9.67 9.67,-9.67z"/>
  <path class="fil2" d="M1671.68 1097.31c5.33,0 9.66,4.33 9.66,9.67 0,5.33 -4.33,9.66 -9.66,9.66 -5.34,0 -9.67,-4.33 -9.67,-9.66 0,-5.34 4.33,-9.67 9.67,-9.67z"/>
  <path class="fil2" d="M1753.57 1016.96c5.34,0 9.67,4.33 9.67,9.67 0,5.34 -4.33,9.67 -9.67,9.67 -5.34,0 -9.66,-4.33 -9.66,-9.67 0,-5.34 4.32,-9.67 9.66,-9.67z"/>
  <path class="fil2" d="M1835.44 1016.96c5.33,0 9.66,4.33 9.66,9.67 0,5.34 -4.33,9.67 -9.66,9.67 -5.34,0 -9.67,-4.33 -9.67,-9.67 0,-5.34 4.33,-9.67 9.67,-9.67z"/>
  <path class="fil2" d="M1753.57 1098.1c5.34,0 9.67,4.33 9.67,9.67 0,5.34 -4.33,9.67 -9.67,9.67 -5.34,0 -9.66,-4.33 -9.66,-9.67 0,-5.34 4.32,-9.67 9.66,-9.67z"/>
  <path class="fil2" d="M1835.44 1098.1c5.33,0 9.66,4.33 9.66,9.67 0,5.34 -4.33,9.67 -9.66,9.67 -5.34,0 -9.67,-4.33 -9.67,-9.67 0,-5.34 4.33,-9.67 9.67,-9.67z"/>
  <path class="fil2" d="M1753.57 934.81c5.34,0 9.67,4.33 9.67,9.66 0,5.34 -4.33,9.67 -9.67,9.67 -5.34,0 -9.66,-4.33 -9.66,-9.67 0,-5.33 4.32,-9.66 9.66,-9.66z"/>
  <path class="fil2" d="M1835.44 934.81c5.33,0 9.66,4.33 9.66,9.66 0,5.34 -4.33,9.67 -9.66,9.67 -5.34,0 -9.67,-4.33 -9.67,-9.67 0,-5.33 4.33,-9.66 9.67,-9.66z"/>
  <path class="fil2" d="M1753.57 852.99c5.34,0 9.67,4.33 9.67,9.66 0,5.34 -4.33,9.67 -9.67,9.67 -5.34,0 -9.66,-4.33 -9.66,-9.67 0,-5.33 4.32,-9.66 9.66,-9.66z"/>
  <path class="fil2" d="M1835.44 852.99c5.33,0 9.66,4.33 9.66,9.66 0,5.34 -4.33,9.67 -9.66,9.67 -5.34,0 -9.67,-4.33 -9.67,-9.67 0,-5.33 4.33,-9.66 9.67,-9.66z"/>
  <path class="fil2" d="M1753.57 1179.96c5.34,0 9.67,4.33 9.67,9.67 0,5.34 -4.33,9.66 -9.67,9.66 -5.34,0 -9.66,-4.32 -9.66,-9.66 0,-5.34 4.32,-9.67 9.66,-9.67z"/>
  <path class="fil2" d="M1835.44 1179.96c5.33,0 9.66,4.33 9.66,9.67 0,5.34 -4.33,9.66 -9.66,9.66 -5.34,0 -9.67,-4.32 -9.67,-9.66 0,-5.34 4.33,-9.67 9.67,-9.67z"/>
  <path class="fil2" d="M1424.73 1179.96c5.34,0 9.67,4.33 9.67,9.67 0,5.34 -4.33,9.66 -9.67,9.66 -5.34,0 -9.67,-4.32 -9.67,-9.66 0,-5.34 4.33,-9.67 9.67,-9.67z"/>
  <path class="fil2" d="M1506.6 1179.96c5.34,0 9.67,4.33 9.67,9.67 0,5.34 -4.33,9.66 -9.67,9.66 -5.33,0 -9.66,-4.32 -9.66,-9.66 0,-5.34 4.33,-9.67 9.66,-9.67z"/>
  <path class="fil2" d="M1588.48 1179.96c5.34,0 9.67,4.33 9.67,9.67 0,5.34 -4.33,9.66 -9.67,9.66 -5.33,0 -9.66,-4.32 -9.66,-9.66 0,-5.34 4.33,-9.67 9.66,-9.67z"/>
  <path class="fil2" d="M1670.35 1179.96c5.34,0 9.67,4.33 9.67,9.67 0,5.34 -4.33,9.66 -9.67,9.66 -5.34,0 -9.67,-4.32 -9.67,-9.66 0,-5.34 4.33,-9.67 9.67,-9.67z"/>
 </g>
</svg>
