<?xml version="1.0" encoding="UTF-8"?>
<!DOCTYPE svg PUBLIC "-//W3C//DTD SVG 1.1//EN" "http://www.w3.org/Graphics/SVG/1.1/DTD/svg11.dtd">
<!-- Creator: CorelDRAW -->
<svg xmlns="http://www.w3.org/2000/svg" xml:space="preserve" width="26.8485mm" height="25.6943mm" version="1.1" style="shape-rendering:geometricPrecision; text-rendering:geometricPrecision; image-rendering:optimizeQuality; fill-rule:evenodd; clip-rule:evenodd"
viewBox="0 0 1256.43 1202.42"
 xmlns:xlink="http://www.w3.org/1999/xlink"
 xmlns:xodm="http://www.corel.com/coreldraw/odm/2003">
 <defs>
  <style type="text/css">
   <![CDATA[
    .fil5 {fill:#E5E3DA}
    .fil3 {fill:#F5D03D}
    .fil1 {fill:#FACB0F}
    .fil2 {fill:#FCEE4C}
    .fil4 {fill:#FFFDF4}
    .fil0 {fill:white}
   ]]>
  </style>
 </defs>
 <g id="Layer_x0020_1">
  <metadata id="CorelCorpID_0Corel-Layer"/>
  <rect class="fil1" x="169.02" y="40.58" width="913.21" height="424.93" rx="1.38" ry="1.17"/>
  <path class="fil2" d="M-0 3.79l196.94 0 0 402c0,5.34 4.72,9.71 10.48,9.71l841.58 0c5.77,0 10.48,-4.37 10.48,-9.71l0 -402 116.59 0 80.35 75.36 0 1123.27 -1256.43 0 0 -1198.63z"/>
  <rect class="fil3" x="147.71" y="517.31" width="961.02" height="685.1"/>
  <rect class="fil4" x="179.34" y="545.59" width="897.75" height="656.82"/>
  <path class="fil5" d="M379.23 0l658.28 0c0.6,0 1.09,0.49 1.09,1.09l0 393.79c0,0.6 -0.49,1.09 -1.09,1.09l-658.28 0c-0.6,0 -1.09,-0.49 -1.09,-1.09l0 -393.79c0,-0.6 0.49,-1.09 1.09,-1.09zm365.36 78.48l167.13 0c0.26,0 0.46,0.2 0.46,0.46l0 287.87c0,0.26 -0.21,0.47 -0.46,0.47l-167.13 0c-0.26,0 -0.46,-0.21 -0.46,-0.47l0 -287.87c0,-0.26 0.21,-0.46 0.46,-0.46z"/>
  <rect class="fil4" x="413.12" y="24.84" width="34.41" height="35.46" rx="0.05" ry="0.1"/>
  <rect class="fil4" x="966.04" y="24.84" width="34.41" height="35.46" rx="0.05" ry="0.1"/>
  <rect class="fil4" x="54.98" y="1101.77" width="50.18" height="47.9" rx="0.08" ry="0.13"/>
  <rect class="fil4" x="1161.13" y="1101.77" width="50.18" height="47.9" rx="0.08" ry="0.13"/>
  <rect class="fil3" x="147.71" y="1079.61" width="961.02" height="122.81"/>
 </g>
</svg>
