<?xml version="1.0" encoding="UTF-8"?>
<!DOCTYPE svg PUBLIC "-//W3C//DTD SVG 1.1//EN" "http://www.w3.org/Graphics/SVG/1.1/DTD/svg11.dtd">
<!-- Creator: CorelDRAW -->
<svg xmlns="http://www.w3.org/2000/svg" xml:space="preserve" width="7.7587mm" height="8.4205mm" version="1.1" style="shape-rendering:geometricPrecision; text-rendering:geometricPrecision; image-rendering:optimizeQuality; fill-rule:evenodd; clip-rule:evenodd"
viewBox="0 0 1725.35 1872.52"
 xmlns:xlink="http://www.w3.org/1999/xlink"
 xmlns:xodm="http://www.corel.com/coreldraw/odm/2003">
 <defs>
  <style type="text/css">
   <![CDATA[
    .fil4 {fill:none}
    .fil13 {fill:#FEFEFE}
    .fil8 {fill:#BA2264}
    .fil1 {fill:#C9327E}
    .fil10 {fill:#C9327E}
    .fil5 {fill:#D33D87}
    .fil9 {fill:#E64C94}
    .fil6 {fill:#E84B94}
    .fil2 {fill:#EE589F}
    .fil3 {fill:#FF72B7}
    .fil12 {fill:#FF82BE}
    .fil11 {fill:#FFA8D2}
    .fil7 {fill:#FFABD4}
   ]]>
  </style>
   <clipPath id="id0">
    <path d="M271.43 276.59l0.04 0c149.28,0 271.41,122.13 271.41,271.45l0 1053.04c0,149.3 -122.13,271.43 -271.41,271.43l-0.04 0c-149.3,0 -271.43,-122.13 -271.43,-271.43l0 -1053.04c0,-149.33 122.13,-271.45 271.43,-271.45zm-20.59 1238.3c46.85,0 84.86,37.98 84.86,84.84 0,46.85 -38,84.86 -84.86,84.86 -46.85,0 -84.84,-38 -84.84,-84.86 0,-46.85 37.98,-84.84 84.84,-84.84z"/>
   </clipPath>
   <clipPath id="id1">
    <path d="M1075.21 601.57c268.19,0 485.54,217.37 485.54,485.56 0,268.16 -217.35,485.54 -485.54,485.54 -268.16,0 -485.56,-217.37 -485.56,-485.54 0,-268.19 217.39,-485.56 485.56,-485.56zm0 55.68c237.39,0 429.85,192.47 429.85,429.85 0,237.43 -192.47,429.88 -429.85,429.88 -237.39,0 -429.85,-192.44 -429.85,-429.88 0,-237.39 192.47,-429.85 429.85,-429.85z"/>
   </clipPath>
   <clipPath id="id2">
    <path d="M581.2 171.9l0 -171.9 820.01 0 0 171.9 -108.74 0 0 -77.54 -602.53 0 0 77.54 -108.74 0z"/>
   </clipPath>
   <clipPath id="id3">
    <path d="M1075.21 749.12c186.66,0 337.99,151.33 337.99,337.99 0,186.68 -151.33,338.01 -337.99,338.01 -186.66,0 -337.99,-151.33 -337.99,-338.01 0,-186.66 151.33,-337.99 337.99,-337.99z"/>
   </clipPath>
   <clipPath id="id4">
    <path d="M1075.21 938.58c82.03,0 148.55,66.49 148.55,148.52 0,82.03 -66.51,148.55 -148.55,148.55 -82.03,0 -148.55,-66.51 -148.55,-148.55 0,-82.03 66.51,-148.52 148.55,-148.52z"/>
   </clipPath>
 </defs>
 <g id="Layer_x0020_1">
  <metadata id="CorelCorpID_0Corel-Layer"/>
  <path class="fil1" d="M395.1 169.67l1192.22 0c75.92,0 138.03,62.11 138.03,138.03l0 1426.79c0,75.92 -62.11,138.03 -138.03,138.03l-1192.22 0c-75.92,0 -138.03,-62.11 -138.03,-138.03l0 -1426.79c0,-75.92 62.11,-138.03 138.03,-138.03zm680.11 487.58c237.39,0 429.85,192.47 429.85,429.85 0,237.43 -192.47,429.88 -429.85,429.88 -237.39,0 -429.85,-192.44 -429.85,-429.88 0,-237.39 192.47,-429.85 429.85,-429.85z"/>
  <path class="fil2" d="M271.43 276.59l0.04 0c149.28,0 271.41,122.13 271.41,271.45l0 1053.04c0,149.3 -122.13,271.43 -271.41,271.43l-0.04 0c-149.3,0 -271.43,-122.13 -271.43,-271.43l0 -1053.04c0,-149.33 122.13,-271.45 271.43,-271.45zm-20.59 1238.3c46.85,0 84.86,37.98 84.86,84.84 0,46.85 -38,84.86 -84.86,84.86 -46.85,0 -84.84,-38 -84.84,-84.86 0,-46.85 37.98,-84.84 84.84,-84.84z"/>
  <g style="clip-path:url(#id0)">
   <g id="_1480865476816">
    <rect class="fil3" x="-44.14" y="167.23" width="311.5" height="1918.44"/>
   </g>
  </g>
  <path class="fil4" d="M271.43 276.59l0.04 0c149.28,0 271.41,122.13 271.41,271.45l0 1053.04c0,149.3 -122.13,271.43 -271.41,271.43l-0.04 0c-149.3,0 -271.43,-122.13 -271.43,-271.43l0 -1053.04c0,-149.33 122.13,-271.45 271.43,-271.45zm-20.59 1238.3c46.85,0 84.86,37.98 84.86,84.84 0,46.85 -38,84.86 -84.86,84.86 -46.85,0 -84.84,-38 -84.84,-84.86 0,-46.85 37.98,-84.84 84.84,-84.84z"/>
  <rect class="fil5" x="164.89" y="424.05" width="171.9" height="255.11" rx="35.81" ry="45.82"/>
  <path class="fil5" d="M250.84 1451.2c82.03,0 148.55,66.51 148.55,148.52 0,82.03 -66.51,148.55 -148.55,148.55 -82.03,0 -148.55,-66.51 -148.55,-148.55 0,-82.01 66.51,-148.52 148.55,-148.52zm0 63.69c46.85,0 84.86,37.98 84.86,84.84 0,46.85 -38,84.86 -84.86,84.86 -46.85,0 -84.84,-38 -84.84,-84.86 0,-46.85 37.98,-84.84 84.84,-84.84z"/>
  <path class="fil6" d="M1075.21 601.57c268.19,0 485.54,217.37 485.54,485.56 0,268.16 -217.35,485.54 -485.54,485.54 -268.16,0 -485.56,-217.37 -485.56,-485.54 0,-268.19 217.39,-485.56 485.56,-485.56zm0 55.68c237.39,0 429.85,192.47 429.85,429.85 0,237.43 -192.47,429.88 -429.85,429.88 -237.39,0 -429.85,-192.44 -429.85,-429.88 0,-237.39 192.47,-429.85 429.85,-429.85z"/>
  <g style="clip-path:url(#id1)">
   <g id="_1480865482816">
    <rect class="fil3" x="545.19" y="457.18" width="532.08" height="1167.52"/>
   </g>
  </g>
  <path class="fil4" d="M1075.21 601.57c268.19,0 485.54,217.37 485.54,485.56 0,268.16 -217.35,485.54 -485.54,485.54 -268.16,0 -485.56,-217.37 -485.56,-485.54 0,-268.19 217.39,-485.56 485.56,-485.56zm0 55.68c237.39,0 429.85,192.47 429.85,429.85 0,237.43 -192.47,429.88 -429.85,429.88 -237.39,0 -429.85,-192.44 -429.85,-429.88 0,-237.39 192.47,-429.85 429.85,-429.85z"/>
  <rect class="fil7" transform="matrix(4.58894E-15 -0.130401 0.221727 4.41948E-15 1180.28 492.213)" width="1318.22" height="1528.81"/>
  <polygon class="fil8" points="581.2,171.9 581.2,0 1401.21,0 1401.21,171.9 1292.47,171.9 1292.47,94.35 689.94,94.35 689.94,171.9 "/>
  <g style="clip-path:url(#id2)">
   <g id="_1480865491984">
    <rect class="fil9" x="526.92" y="-107.01" width="468.19" height="340.5"/>
   </g>
  </g>
  <polygon class="fil4" points="581.2,171.9 581.2,0 1401.21,0 1401.21,171.9 1292.47,171.9 1292.47,94.35 689.94,94.35 689.94,171.9 "/>
  <g id="_1480865494384">
   <circle class="fil10" cx="1292.49" cy="406.26" r="39.33"/>
   <circle class="fil10" cx="1407.07" cy="406.26" r="39.33"/>
  </g>
  <path class="fil3" d="M1075.21 749.12c186.66,0 337.99,151.33 337.99,337.99 0,186.68 -151.33,338.01 -337.99,338.01 -186.66,0 -337.99,-151.33 -337.99,-338.01 0,-186.66 151.33,-337.99 337.99,-337.99z"/>
  <g style="clip-path:url(#id3)">
   <g id="_1480865496064">
    <rect class="fil11" x="545.19" y="457.18" width="532.08" height="1167.52"/>
   </g>
  </g>
  <path class="fil4" d="M1075.21 749.12c186.66,0 337.99,151.33 337.99,337.99 0,186.68 -151.33,338.01 -337.99,338.01 -186.66,0 -337.99,-151.33 -337.99,-338.01 0,-186.66 151.33,-337.99 337.99,-337.99z"/>
  <path class="fil2" d="M1075.21 938.58c82.03,0 148.55,66.49 148.55,148.52 0,82.03 -66.51,148.55 -148.55,148.55 -82.03,0 -148.55,-66.51 -148.55,-148.55 0,-82.03 66.51,-148.52 148.55,-148.52z"/>
  <g style="clip-path:url(#id4)">
   <g id="_1480865501248">
    <rect class="fil12" x="545.19" y="457.18" width="532.08" height="1167.52"/>
   </g>
  </g>
  <path class="fil4" d="M1075.21 938.58c82.03,0 148.55,66.49 148.55,148.52 0,82.03 -66.51,148.55 -148.55,148.55 -82.03,0 -148.55,-66.51 -148.55,-148.55 0,-82.03 66.51,-148.52 148.55,-148.52z"/>
  <circle class="fil13" cx="250.84" cy="1599.73" r="86.46"/>
 </g>
</svg>
