<svg width="59" height="56" viewBox="0 0 59 56" fill="none" xmlns="http://www.w3.org/2000/svg">
<path d="M38.5944 22.8574L24.2921 11.2078L28.4631 6.08711L23.3424 1.91613C21.9843 0.809916 20.2424 0.288515 18.4998 0.466628C16.7573 0.644741 15.1569 1.50778 14.0507 2.86588L1.53773 18.2281C0.431513 19.5862 -0.0898895 21.3281 0.0882231 23.0706C0.266336 24.8132 1.12937 26.4136 2.48748 27.5198L7.60821 31.6908L11.7792 26.57L26.0814 38.2196L24.8065 48.7105C24.8954 49.5817 25.3268 50.3819 26.0057 50.9351L31.1264 55.1061C31.8054 55.6592 32.6764 55.9199 33.5477 55.8308C34.4189 55.7418 35.2191 55.3103 35.7722 54.6312L44.1142 44.3897L51.7953 50.6462L59.0015 52.2568L55.9663 45.5255L48.2852 39.269L56.6272 29.0275C57.1803 28.3485 57.441 27.4775 57.3519 26.6063C57.2629 25.735 56.8313 24.9348 56.1523 24.3817L51.0316 20.2107C50.3524 19.6578 49.4815 19.3972 48.6103 19.4864L38.5944 22.8574Z" fill="black"/>
</svg>
