<?xml version="1.0" encoding="UTF-8"?>
<!DOCTYPE svg PUBLIC "-//W3C//DTD SVG 1.1//EN" "http://www.w3.org/Graphics/SVG/1.1/DTD/svg11.dtd">
<!-- Creator: CorelDRAW -->
<svg xmlns="http://www.w3.org/2000/svg" xml:space="preserve" width="3.1336mm" height="3.4415mm" version="1.1" style="shape-rendering:geometricPrecision; text-rendering:geometricPrecision; image-rendering:optimizeQuality; fill-rule:evenodd; clip-rule:evenodd"
viewBox="0 0 37.08 40.72"
 xmlns:xlink="http://www.w3.org/1999/xlink"
 xmlns:xodm="http://www.corel.com/coreldraw/odm/2003">
 <defs>
  <style type="text/css">
   <![CDATA[
    .fil3 {fill:none}
    .fil1 {fill:#9D9E9E}
    .fil4 {fill:#2C0052}
    .fil5 {fill:#5A2B7F}
    .fil6 {fill:#8A57AF}
    .fil2 {fill:#E5E3DA}
   ]]>
  </style>
    <clipPath id="id0">
     <path d="M21.06 25.54l12.91 12.89 3.11 2.29 -1.66 -3.62 -11.38 -14.78 -2.97 3.22z"/>
    </clipPath>
    <clipPath id="id1">
     <path d="M15.22 15.52c5.03,-4.38 12.65,-3.88 17.06,1.12l-18.29 15.93c-4.34,-5.05 -3.8,-12.67 1.23,-17.05z"/>
    </clipPath>
    <clipPath id="id2">
     <path d="M-0 12.27l14.09 -12.27 1.91 2.19c0.94,1.08 0.83,2.74 -0.25,3.68l-10.16 8.85c-1.08,0.94 -2.74,0.83 -3.68,-0.25l-1.9 -2.19z"/>
    </clipPath>
 </defs>
 <g id="Layer_x0020_1">
  <metadata id="CorelCorpID_0Corel-Layer"/>
  <g id="_2024979581872">
   <polygon class="fil1" points="21.06,25.54 33.97,38.44 37.08,40.72 35.42,37.1 24.03,22.32 "/>
   <g style="clip-path:url(#id0)">
    <g>
     <rect class="fil2" transform="matrix(0.0691501 -0.0602375 0.885738 1.01679 22.7999 24.3218)" width="26.36" height="17.7"/>
    </g>
   </g>
   <polygon class="fil3" points="21.06,25.54 33.97,38.44 37.08,40.72 35.42,37.1 24.03,22.32 "/>
   <rect class="fil4" transform="matrix(0.0839943 -0.0731685 0.0811947 0.093208 7.96958 11.6712)" width="52.74" height="68.38"/>
   <path class="fil5" d="M15.22 15.52c5.03,-4.38 12.65,-3.88 17.06,1.12l-18.29 15.93c-4.34,-5.05 -3.8,-12.67 1.23,-17.05z"/>
   <g style="clip-path:url(#id1)">
    <g>
     <rect class="fil6" transform="matrix(0.381679 -0.332485 0.487667 0.559821 15.0046 15.3589)" width="26.36" height="17.7"/>
    </g>
   </g>
   <path class="fil3" d="M15.22 15.52c5.03,-4.38 12.65,-3.88 17.06,1.12l-18.29 15.93c-4.34,-5.05 -3.8,-12.67 1.23,-17.05z"/>
   <path class="fil5" d="M-0 12.27l14.09 -12.27 1.91 2.19c0.94,1.08 0.83,2.74 -0.25,3.68l-10.16 8.85c-1.08,0.94 -2.74,0.83 -3.68,-0.25l-1.9 -2.19z"/>
   <g style="clip-path:url(#id2)">
    <g>
     <rect class="fil6" transform="matrix(0.381679 -0.332485 0.332485 0.381679 6.28761 5.38501)" width="26.36" height="17.7"/>
    </g>
   </g>
   <path class="fil3" d="M-0 12.27l14.09 -12.27 1.91 2.19c0.94,1.08 0.83,2.74 -0.25,3.68l-10.16 8.85c-1.08,0.94 -2.74,0.83 -3.68,-0.25l-1.9 -2.19z"/>
  </g>
 </g>
</svg>
