<svg width="974" height="472" viewBox="0 0 974 472" fill="none" xmlns="http://www.w3.org/2000/svg">
<path fill-rule="evenodd" clip-rule="evenodd" d="M-0.0126953 -0.118896H974V844H-0.0126953V-0.118896ZM80.5902 48.7912C80.5902 60.5184 70.647 70.0252 58.3815 70.0252C46.116 70.0252 36.1729 60.5184 36.1729 48.7912C36.1729 37.0639 46.116 27.5571 58.3815 27.5571C70.647 27.5571 80.5902 37.0639 80.5902 48.7912ZM136.089 70.0251C148.355 70.0251 158.298 60.5183 158.298 48.7911C158.298 37.0638 148.355 27.557 136.089 27.557C123.824 27.557 113.881 37.0638 113.881 48.7911C113.881 60.5183 123.824 70.0251 136.089 70.0251ZM236.001 48.7911C236.001 60.5183 226.058 70.0251 213.792 70.0251C201.527 70.0251 191.584 60.5183 191.584 48.7911C191.584 37.0638 201.527 27.557 213.792 27.557C226.058 27.557 236.001 37.0638 236.001 48.7911ZM291.497 70.0251C303.763 70.0251 313.706 60.5183 313.706 48.7911C313.706 37.0638 303.763 27.557 291.497 27.557C279.232 27.557 269.289 37.0638 269.289 48.7911C269.289 60.5183 279.232 70.0251 291.497 70.0251ZM391.415 48.7911C391.415 60.5183 381.471 70.0251 369.206 70.0251C356.94 70.0251 346.997 60.5183 346.997 48.7911C346.997 37.0638 356.94 27.557 369.206 27.557C381.471 27.557 391.415 37.0638 391.415 48.7911ZM446.908 70.0251C459.173 70.0251 469.116 60.5183 469.116 48.7911C469.116 37.0638 459.173 27.557 446.908 27.557C434.642 27.557 424.699 37.0638 424.699 48.7911C424.699 60.5183 434.642 70.0251 446.908 70.0251ZM546.824 48.7911C546.824 60.5183 536.881 70.0251 524.615 70.0251C512.35 70.0251 502.407 60.5183 502.407 48.7911C502.407 37.0638 512.35 27.557 524.615 27.557C536.881 27.557 546.824 37.0638 546.824 48.7911ZM602.32 70.0251C614.586 70.0251 624.529 60.5183 624.529 48.7911C624.529 37.0638 614.586 27.557 602.32 27.557C590.055 27.557 580.112 37.0638 580.112 48.7911C580.112 60.5183 590.055 70.0251 602.32 70.0251ZM702.237 48.7911C702.237 60.5183 692.294 70.0251 680.028 70.0251C667.763 70.0251 657.819 60.5183 657.819 48.7911C657.819 37.0638 667.763 27.557 680.028 27.557C692.294 27.557 702.237 37.0638 702.237 48.7911ZM757.731 70.0251C769.997 70.0251 779.94 60.5183 779.94 48.7911C779.94 37.0638 769.997 27.557 757.731 27.557C745.466 27.557 735.523 37.0638 735.523 48.7911C735.523 60.5183 745.466 70.0251 757.731 70.0251ZM857.646 48.7911C857.646 60.5183 847.703 70.0251 835.438 70.0251C823.172 70.0251 813.229 60.5183 813.229 48.7911C813.229 37.0638 823.172 27.557 835.438 27.557C847.703 27.557 857.646 37.0638 857.646 48.7911ZM913.145 70.0251C925.41 70.0251 935.353 60.5183 935.353 48.7911C935.353 37.0638 925.41 27.557 913.145 27.557C900.879 27.557 890.936 37.0638 890.936 48.7911C890.936 60.5183 900.879 70.0251 913.145 70.0251Z" fill="#EE589F"/>
</svg>
