<?xml version="1.0" encoding="UTF-8"?>
<!DOCTYPE svg PUBLIC "-//W3C//DTD SVG 1.1//EN" "http://www.w3.org/Graphics/SVG/1.1/DTD/svg11.dtd">
<!-- Creator: CorelDRAW -->
<svg xmlns="http://www.w3.org/2000/svg" xml:space="preserve" width="5.676mm" height="6.9785mm" version="1.1" style="shape-rendering:geometricPrecision; text-rendering:geometricPrecision; image-rendering:optimizeQuality; fill-rule:evenodd; clip-rule:evenodd"
viewBox="0 0 424.63 522.08"
 xmlns:xlink="http://www.w3.org/1999/xlink"
 xmlns:xodm="http://www.corel.com/coreldraw/odm/2003">
 <defs>
  <style type="text/css">
   <![CDATA[
    .fil3 {fill:none}
    .fil1 {fill:#EE589F}
    .fil2 {fill:#FFABD4}
   ]]>
  </style>
   <clipPath id="id0">
    <path d="M424.63 132.76l-130.38 0 0 -132.76 -163.88 0 0 132.76 -130.38 0 0 389.32 424.63 0 0 -389.32zm-186.36 0l-51.93 0 0 -76.88 51.93 0 0 76.88zm-25.97 86.45l-62.46 108.2 -62.49 108.2 124.95 0 124.95 0 -62.48 -108.2 -62.47 -108.2z"/>
   </clipPath>
   <clipPath id="id1">
    <path d="M227.62 276.46l-30.61 0 0 96.55 30.61 0 0 -96.55z"/>
   </clipPath>
   <clipPath id="id2">
    <path d="M212.31 380.23c-10.72,0 -19.42,8.7 -19.42,19.42 0,10.73 8.7,19.43 19.42,19.43 10.73,0 19.43,-8.7 19.43,-19.43 0,-10.72 -8.7,-19.42 -19.43,-19.42z"/>
   </clipPath>
 </defs>
 <g id="Layer_x0020_1">
  <metadata id="CorelCorpID_0Corel-Layer"/>
  <path class="fil1" d="M424.63 132.76l-130.38 0 0 -132.76 -163.88 0 0 132.76 -130.38 0 0 389.32 424.63 0 0 -389.32zm-186.36 0l-51.93 0 0 -76.88 51.93 0 0 76.88zm-25.97 86.45l-62.46 108.2 -62.49 108.2 124.95 0 124.95 0 -62.48 -108.2 -62.47 -108.2z"/>
  <g style="clip-path:url(#id0)">
   <g id="_1516993784352">
    <rect class="fil2" x="-21.03" y="-34.17" width="233.73" height="575.19"/>
   </g>
  </g>
  <path class="fil3" d="M424.63 132.76l-130.38 0 0 -132.76 -163.88 0 0 132.76 -130.38 0 0 389.32 424.63 0 0 -389.32zm-186.36 0l-51.93 0 0 -76.88 51.93 0 0 76.88zm-25.97 86.45l-62.46 108.2 -62.49 108.2 124.95 0 124.95 0 -62.48 -108.2 -62.47 -108.2z"/>
  <polygon class="fil1" points="227.62,276.46 197.02,276.46 197.02,373.01 227.62,373.01 "/>
  <g style="clip-path:url(#id1)">
   <g id="_1516993781904">
    <rect class="fil2" x="184.22" y="260.68" width="28.64" height="124.32"/>
   </g>
  </g>
  <polygon class="fil3" points="227.62,276.46 197.02,276.46 197.02,373.01 227.62,373.01 "/>
  <path class="fil1" d="M212.31 380.23c-10.72,0 -19.42,8.7 -19.42,19.42 0,10.73 8.7,19.43 19.42,19.43 10.73,0 19.43,-8.7 19.43,-19.43 0,-10.72 -8.7,-19.42 -19.43,-19.42z"/>
  <g style="clip-path:url(#id2)">
   <g id="_1516993784496">
    <rect class="fil2" x="175.74" y="265.11" width="37.28" height="161.86"/>
   </g>
  </g>
  <path class="fil3" d="M212.31 380.23c-10.72,0 -19.42,8.7 -19.42,19.42 0,10.73 8.7,19.43 19.42,19.43 10.73,0 19.43,-8.7 19.43,-19.43 0,-10.72 -8.7,-19.42 -19.43,-19.42z"/>
 </g>
</svg>
