<?xml version="1.0" encoding="UTF-8"?>
<!DOCTYPE svg PUBLIC "-//W3C//DTD SVG 1.1//EN" "http://www.w3.org/Graphics/SVG/1.1/DTD/svg11.dtd">
<!-- Creator: CorelDRAW -->
<svg xmlns="http://www.w3.org/2000/svg" xml:space="preserve" width="32.7514mm" height="32.7512mm" version="1.1" style="shape-rendering:geometricPrecision; text-rendering:geometricPrecision; image-rendering:optimizeQuality; fill-rule:evenodd; clip-rule:evenodd"
viewBox="0 0 1424.31 1424.31"
 xmlns:xlink="http://www.w3.org/1999/xlink"
 xmlns:xodm="http://www.corel.com/coreldraw/odm/2003">
 <defs>
  <style type="text/css">
   <![CDATA[
    .fil3 {fill:none}
    .fil2 {fill:#00112E}
    .fil1 {fill:#273757}
    .fil9 {fill:#D33D87}
    .fil7 {fill:#EBC117}
    .fil4 {fill:#EE589F}
    .fil6 {fill:#F5D03D}
    .fil5 {fill:#F5F3EB}
    .fil12 {fill:#FCEE4C}
    .fil10 {fill:#FF72B7}
    .fil11 {fill:#FFABD4}
    .fil8 {fill:#FFFDF4}
    .fil0 {fill:white}
   ]]>
  </style>
   <clipPath id="id0">
    <path d="M712.16 0c393.31,0 712.15,318.84 712.15,712.15 0,393.31 -318.85,712.15 -712.15,712.15 -393.31,0 -712.16,-318.84 -712.16,-712.15 0,-393.31 318.85,-712.15 712.16,-712.15z"/>
   </clipPath>
   <clipPath id="id1">
    <path d="M634.44 396.19l39.47 76.06 -52.96 388.83 169.58 0 -53.2 -392.35 38.53 -71.43 -70.57 -99.92 -70.85 98.8z"/>
   </clipPath>
   <clipPath id="id2">
    <path d="M556.79 656.11l149.09 204.98 148.83 -209.87 -31.64 159.63 -118.05 511.13 -148.22 -665.86z"/>
   </clipPath>
 </defs>
 <g id="Layer_x0020_1">
  <metadata id="CorelCorpID_0Corel-Layer"/>
  <path class="fil1" d="M712.16 0c393.31,0 712.15,318.84 712.15,712.15 0,393.31 -318.85,712.15 -712.15,712.15 -393.31,0 -712.16,-318.84 -712.16,-712.15 0,-393.31 318.85,-712.15 712.16,-712.15z"/>
  <g style="clip-path:url(#id0)">
   <g id="_2000303870960">
    <polygon id="_1" class="fil2" points="698.85,1314.31 1282.02,2089.4 1906.47,1866.23 2847.25,824.11 1108.73,524.58 "/>
   </g>
  </g>
  <path class="fil3" d="M712.16 0c393.31,0 712.15,318.84 712.15,712.15 0,393.31 -318.85,712.15 -712.15,712.15 -393.31,0 -712.16,-318.84 -712.16,-712.15 0,-393.31 318.85,-712.15 712.16,-712.15z"/>
  <polygon class="fil4" points="505.29,276.21 326.39,402.84 389.21,439.53 302.77,530.99 705.01,1321.97 1108.73,524.58 1016.7,439.35 1080.36,404.31 894.89,280.73 700.85,299.19 "/>
  <polygon class="fil5" points="548.57,509.31 557.98,656.11 618.55,921.73 795.8,927.49 857.43,641.61 862.93,509.31 779.96,371.41 573.06,380.86 "/>
  <polygon class="fil6" points="634.44,396.19 673.92,472.26 620.96,861.09 790.54,861.09 737.34,468.73 775.87,397.31 705.29,297.39 "/>
  <g style="clip-path:url(#id1)">
   <g id="_2000303872352">
    <polygon id="_1_0" class="fil7" points="655.21,471.87 764.31,471.87 790.6,363.64 704.44,296.97 627.61,403.95 "/>
   </g>
  </g>
  <polygon class="fil3" points="634.44,396.19 673.92,472.26 620.96,861.09 790.54,861.09 737.34,468.73 775.87,397.31 705.29,297.39 "/>
  <g id="_2000303872448">
   <path class="fil8" d="M548.57 509.31l-47.18 -220.97 6.62 -155.59c0,0 76.24,104.2 198.6,164.65 0,0 -59.74,159.77 -158.04,211.92z"/>
   <path class="fil8" d="M862.93 509.31l47.18 -220.97 -6.62 -155.59c0,0 -76.24,104.2 -198.6,164.65 0,0 59.73,159.77 158.04,211.92z"/>
  </g>
  <polygon class="fil9" points="556.79,656.11 705.88,861.08 854.7,651.21 823.07,810.85 705.01,1321.97 "/>
  <g style="clip-path:url(#id2)">
   <g id="_2000303870672">
    <path id="_1_1" class="fil10" d="M668.49 916.42l186.22 -265.21 11.82 18.16 -149.31 678.65c0,0 -43.73,0 -46.75,-10.55 -3.02,-10.56 -9.8,-165.14 -9.8,-165.14l7.82 -255.9z"/>
   </g>
  </g>
  <polygon class="fil3" points="556.79,656.11 705.88,861.08 854.7,651.21 823.07,810.85 705.01,1321.97 "/>
  <circle class="fil9" cx="701.69" cy="929.99" r="18.19"/>
  <g id="_2000303872544">
   <circle class="fil11" cx="695.94" cy="924.69" r="4.65"/>
   <circle class="fil11" cx="707.43" cy="924.69" r="4.65"/>
   <circle class="fil11" cx="695.94" cy="935.29" r="4.65"/>
   <circle class="fil11" cx="707.43" cy="935.29" r="4.65"/>
  </g>
  <circle class="fil9" cx="701.69" cy="1070.56" r="18.19"/>
  <g id="_2000303874176">
   <circle class="fil11" cx="695.94" cy="1065.26" r="4.65"/>
   <circle class="fil11" cx="707.43" cy="1065.26" r="4.65"/>
   <circle class="fil11" cx="695.94" cy="1075.86" r="4.65"/>
   <circle class="fil11" cx="707.43" cy="1075.86" r="4.65"/>
  </g>
  <rect class="fil10" x="1024.38" y="741.82" width="182.38" height="29.68"/>
  <polygon class="fil12" points="1116.47,784.94 1157.05,808.38 1197.63,831.8 1197.63,878.67 1197.63,925.53 1157.05,948.96 1116.47,972.39 1075.88,948.96 1035.3,925.53 1035.3,878.67 1035.3,831.8 1075.88,808.38 "/>
  <polygon class="fil7" points="1116.47,797.03 1151.82,817.44 1187.17,837.85 1187.17,878.67 1187.17,919.49 1151.82,939.89 1116.47,960.3 1081.12,939.89 1045.77,919.49 1045.77,878.67 1045.77,837.85 1081.12,817.44 "/>
  <polygon class="fil12" points="1094.61,809.65 1116.65,880.34 1137.41,809.12 1116.47,797.03 "/>
  <polygon class="fil12" points="1058.95,901.51 1116.65,880.34 1057.69,859.01 1045.77,880.14 "/>
  <polygon class="fil12" points="1094.83,948.1 1116.65,880.34 1136.98,948.46 1116.48,960.3 "/>
  <polygon class="fil12" points="1174.24,901.51 1116.65,880.34 1174.69,860.68 1187.17,880.37 "/>
  <rect class="fil9" x="1024.38" y="730.24" width="182.38" height="11.59"/>
 </g>
</svg>
