<?xml version="1.0" encoding="UTF-8"?>
<!DOCTYPE svg PUBLIC "-//W3C//DTD SVG 1.1//EN" "http://www.w3.org/Graphics/SVG/1.1/DTD/svg11.dtd">
<!-- Creator: CorelDRAW -->
<svg xmlns="http://www.w3.org/2000/svg" xml:space="preserve" width="32.7512mm" height="32.7513mm" version="1.1" style="shape-rendering:geometricPrecision; text-rendering:geometricPrecision; image-rendering:optimizeQuality; fill-rule:evenodd; clip-rule:evenodd"
viewBox="0 0 1422.99 1422.99"
 xmlns:xlink="http://www.w3.org/1999/xlink"
 xmlns:xodm="http://www.corel.com/coreldraw/odm/2003">
 <defs>
  <style type="text/css">
   <![CDATA[
    .fil3 {fill:none}
    .fil15 {fill:#29004D}
    .fil6 {fill:#2C0052}
    .fil13 {fill:#37C648}
    .fil4 {fill:#5A2B7F}
    .fil9 {fill:#704491}
    .fil8 {fill:#A274C2}
    .fil2 {fill:#AD0057}
    .fil7 {fill:#E5E3DA}
    .fil1 {fill:#EE589F}
    .fil12 {fill:#F74948}
    .fil16 {fill:#F7CE28}
    .fil11 {fill:#FBB93F}
    .fil14 {fill:#FCEE4C}
    .fil5 {fill:#FFFDF4}
    .fil0 {fill:white}
    .fil10 {fill:#FFFDF4;fill-opacity:0.160784}
   ]]>
  </style>
   <clipPath id="id0">
    <path d="M711.49 0c392.95,0 711.49,318.55 711.49,711.49 0,392.95 -318.55,711.5 -711.49,711.5 -392.95,0 -711.49,-318.55 -711.49,-711.5 0,-392.94 318.55,-711.49 711.49,-711.49z"/>
   </clipPath>
   <clipPath id="id1">
    <path d="M239.32 341.58l944.34 0c26.75,0 48.64,21.88 48.64,48.64l0 562.54c0,26.75 -21.88,48.64 -48.64,48.64l-944.34 0c-26.75,0 -48.64,-21.88 -48.64,-48.64l0 -562.54c0,-26.76 21.88,-48.64 48.64,-48.64z"/>
   </clipPath>
   <clipPath id="id2">
    <path d="M596.73 1001.75l229.52 0 0 137.06 -229.52 0 0 -137.06z"/>
   </clipPath>
   <clipPath id="id3">
    <path d="M542.84 1094.67l337.31 0 0 44.14 -337.31 0 0 -44.14z"/>
   </clipPath>
   <clipPath id="id4">
    <path d="M357.88 284.18l707.22 0c17.74,0 32.25,14.51 32.25,32.25l0 443.77c0,17.74 -14.51,32.25 -32.25,32.25l-707.22 0c-17.74,0 -32.25,-14.5 -32.25,-32.25l0 -443.77c0,-17.74 14.5,-32.25 32.25,-32.25z"/>
   </clipPath>
   <clipPath id="id5">
    <path d="M1099.91 481.96l-31.66 18.57 27.45 46.43c12.64,21.52 -10.83,30.23 -33.29,43.44l-32.79 19.32c-24.75,14.53 -30.91,-5.56 -45.04,-29.47l-13.34 -22.55 -42.76 25.2c-11.54,6.8 -19.56,9.98 -28.72,1.5 -9.86,-9.13 -5.18,-20.13 -3.05,-28.43 4.91,-19.07 9.52,-35.9 13.89,-53.91l21.39 -80.39c1.81,-7.16 2.88,-20.66 16.24,-24.1 7.46,-1.93 20.65,2.83 27.22,4.53 44.37,11.48 90.38,22.81 134.39,34.9 9.12,2.5 18.77,10.62 15.93,22.75 -2.63,11.29 -14.57,15.57 -25.83,22.21z"/>
   </clipPath>
 </defs>
 <g id="Layer_x0020_1">
  <metadata id="CorelCorpID_0Corel-Layer"/>
  <path class="fil1" d="M711.49 0c392.95,0 711.49,318.55 711.49,711.49 0,392.95 -318.55,711.5 -711.49,711.5 -392.95,0 -711.49,-318.55 -711.49,-711.5 0,-392.94 318.55,-711.49 711.49,-711.49z"/>
  <g style="clip-path:url(#id0)">
   <g id="_2037933390864">
    <polygon id="_1" class="fil2" points="542.84,1138.81 1129.87,1901.83 1749.34,1690.22 2465.79,1105.9 1225.21,899.34 798.45,923.47 "/>
   </g>
  </g>
  <path class="fil3" d="M711.49 0c392.95,0 711.49,318.55 711.49,711.49 0,392.95 -318.55,711.5 -711.49,711.5 -392.95,0 -711.49,-318.55 -711.49,-711.5 0,-392.94 318.55,-711.49 711.49,-711.49z"/>
  <path class="fil4" d="M239.32 341.58l944.34 0c26.75,0 48.64,21.88 48.64,48.64l0 562.54c0,26.75 -21.88,48.64 -48.64,48.64l-944.34 0c-26.75,0 -48.64,-21.88 -48.64,-48.64l0 -562.54c0,-26.76 21.88,-48.64 48.64,-48.64z"/>
  <g style="clip-path:url(#id1)">
   <g id="_2037933390336">
    <rect class="fil5" x="164.75" y="896.83" width="1080.51" height="130.51"/>
   </g>
  </g>
  <path class="fil3" d="M239.32 341.58l944.34 0c26.75,0 48.64,21.88 48.64,48.64l0 562.54c0,26.75 -21.88,48.64 -48.64,48.64l-944.34 0c-26.75,0 -48.64,-21.88 -48.64,-48.64l0 -562.54c0,-26.76 21.88,-48.64 48.64,-48.64z"/>
  <polygon class="fil5" points="596.73,1001.75 826.25,1001.75 826.25,1138.81 596.73,1138.81 "/>
  <g style="clip-path:url(#id2)">
   <g id="_2037933391536">
    <polygon id="_1_0" class="fil6" points="834.61,1006.86 581.4,1155.54 514.96,1155.54 527.51,988.74 845.77,991.53 "/>
   </g>
  </g>
  <polygon class="fil3" points="596.73,1001.75 826.25,1001.75 826.25,1138.81 596.73,1138.81 "/>
  <polygon class="fil5" points="542.84,1094.67 880.15,1094.67 880.15,1138.81 542.84,1138.81 "/>
  <g style="clip-path:url(#id3)">
   <g id="_2037933391632">
    <polygon id="_1_1" class="fil6" points="834.61,1006.86 581.4,1155.54 514.96,1155.54 527.51,988.74 845.77,991.53 "/>
   </g>
  </g>
  <polygon class="fil3" points="542.84,1094.67 880.15,1094.67 880.15,1138.81 542.84,1138.81 "/>
  <circle class="fil7" cx="711.49" cy="949.6" r="26.31"/>
  <path class="fil8" d="M357.88 284.18l707.22 0c17.74,0 32.25,14.51 32.25,32.25l0 443.77c0,17.74 -14.51,32.25 -32.25,32.25l-707.22 0c-17.74,0 -32.25,-14.5 -32.25,-32.25l0 -443.77c0,-17.74 14.5,-32.25 32.25,-32.25z"/>
  <g style="clip-path:url(#id4)">
   <g id="_2037933406512">
    <rect class="fil9" x="307.01" y="274.12" width="805.44" height="139.46"/>
   </g>
  </g>
  <path class="fil3" d="M357.88 284.18l707.22 0c17.74,0 32.25,14.51 32.25,32.25l0 443.77c0,17.74 -14.51,32.25 -32.25,32.25l-707.22 0c-17.74,0 -32.25,-14.5 -32.25,-32.25l0 -443.77c0,-17.74 14.5,-32.25 32.25,-32.25z"/>
  <path class="fil10" d="M468.61 477.43c23.97,0 43.4,19.43 43.4,43.4 0,23.97 -19.43,43.41 -43.4,43.41 -23.97,0 -43.4,-19.43 -43.4,-43.41 0,-23.97 19.43,-43.4 43.4,-43.4z"/>
  <path class="fil10" d="M419.5 698.81l103.78 0c16.48,0 29.95,13.48 29.95,29.95l0 0c0,16.48 -13.47,29.95 -29.95,29.95l-103.78 0c-16.48,0 -29.95,-13.47 -29.95,-29.95l0 -0c0,-16.47 13.47,-29.95 29.95,-29.95z"/>
  <path class="fil10" d="M395.12 658.06l152.54 0c3.07,0 5.57,-2.5 5.57,-5.57l0 -0c0,-3.07 -2.5,-5.57 -5.57,-5.57l-152.54 0c-3.07,0 -5.57,2.5 -5.57,5.57l0 0c0,3.07 2.5,5.57 5.57,5.57z"/>
  <path class="fil10" d="M395.12 613.49l152.54 0c3.07,0 5.57,-2.5 5.57,-5.57l0 -0c0,-3.07 -2.5,-5.57 -5.57,-5.57l-152.54 0c-3.07,0 -5.57,2.5 -5.57,5.57l0 0c0,3.07 2.5,5.57 5.57,5.57z"/>
  <path class="fil11" d="M879.39 347.29l37.66 0.01 0.03 6.46 -38.07 -0.02 0.38 -6.45zm14.22 -30.14c-44.15,6.28 -33.89,71.72 9.14,65.6 43.29,-6.16 34.51,-71.81 -9.14,-65.6z"/>
  <path class="fil12" d="M801.17 363.52l-4.42 4.36 -12.65 -12.27c-5.77,2.43 -7.78,9.44 -13.78,11.98l-3.6 -4.33 12.24 -12.97 -12.33 -13.04 4.51 -3.88c3.35,3.33 8.96,10.34 13.12,12.12l12.83 -12.15 4.04 4.2 -12.21 13.03 12.26 12.95zm-50.55 -10.51c1.72,16.93 16.86,31.66 35.85,29.94 17.24,-1.56 32.16,-16.44 30.46,-36.01 -1.49,-17.23 -16.99,-31.69 -36.13,-30.03 -17.1,1.49 -32.12,16.98 -30.18,36.09z"/>
  <path class="fil13" d="M997.13 343.19c3.39,5.13 20.4,17.15 22.81,22.6l-23.05 0.48 0.24 -23.08zm30.65 14.52c-2.09,-1.31 -0.29,-0.01 -2.14,-1.76l-10.1 -9.79c-2.93,-2.77 -9.18,-7.92 -10.88,-10.96l23.12 -0.65 0 23.16zm-20.07 -40.51c-16.84,2.65 -31.47,17.72 -28.12,38.14 2.69,16.37 18.57,30.46 38,27.35 16.27,-2.6 31.2,-18.36 27.85,-37.85 -2.84,-16.5 -18.04,-30.74 -37.73,-27.64z"/>
  <path class="fil14" d="M898.11 309.17c-22.7,-0.01 -41.44,18.49 -41.35,41.25 0.1,22.82 18.18,41.46 41.33,41.47 22.63,0 41.66,-18.83 41.36,-41.48 -0.3,-22.75 -18.59,-41.24 -41.35,-41.24zm-4.5 7.98c43.65,-6.21 52.42,59.44 9.14,65.6 -43.02,6.12 -53.29,-59.32 -9.14,-65.6zm-0.13 -2.22c-18.62,3.03 -34.45,18.37 -30.92,40.99 7.3,46.77 78.19,36.49 70.98,-10.73 -2.68,-17.57 -19.03,-33.68 -40.06,-30.26z"/>
  <path class="fil14" d="M1005.74 309.84c-57.14,12.26 -37.15,91.26 14.23,81.32 19.96,-3.86 36.98,-22.8 32.9,-47.65 -3.21,-19.52 -23.25,-38.8 -47.14,-33.68zm1.97 7.35c19.69,-3.1 34.9,11.14 37.73,27.64 3.35,19.5 -11.57,35.25 -27.85,37.85 -19.43,3.11 -35.31,-10.98 -38,-27.35 -3.35,-20.42 11.27,-35.49 28.12,-38.14zm40.21 38.41c3.56,-21.35 -12.78,-37.99 -30.48,-40.74 -20.72,-3.22 -37.97,12.33 -40.67,29.58 -7.46,47.58 63.17,59.02 71.15,11.16z"/>
  <path class="fil14" d="M777.65 309.78c-12.74,2.51 -20.35,7.59 -26.08,15.04 -6.27,8.16 -10.61,18.73 -8.48,32.2 3.19,20.21 22.69,38.53 47.49,34.34 20.33,-3.44 37.9,-22.7 33.95,-47.68 -3.12,-19.69 -23.09,-38.58 -46.89,-33.89zm-27.03 43.23c-1.94,-19.11 13.09,-34.6 30.18,-36.09 19.14,-1.66 34.64,12.8 36.13,30.03 1.69,19.56 -13.22,34.45 -30.46,36.01 -19,1.72 -34.13,-13.02 -35.85,-29.94zm29.35 -38.23c-50.07,7.74 -36.95,76.92 8.27,71.57 18.12,-2.14 33.89,-18.8 31.29,-40.25 -2.16,-17.8 -18.91,-34.52 -39.56,-31.32z"/>
  <path class="fil15" d="M766.62 337.24l12.33 13.04 -12.24 12.97 3.6 4.33c6,-2.54 8.01,-9.55 13.78,-11.98l12.65 12.27 4.42 -4.36 -12.26 -12.95 12.21 -13.03 -4.04 -4.2 -12.83 12.15c-4.15,-1.78 -9.77,-8.79 -13.12,-12.12l-4.51 3.88z"/>
  <path class="fil15" d="M1027.78 357.7l0 -23.16 -23.12 0.65c1.71,3.04 7.96,8.19 10.88,10.96l10.1 9.79c1.85,1.76 0.05,0.46 2.14,1.76z"/>
  <path class="fil15" d="M996.89 366.27l23.05 -0.48c-2.42,-5.45 -19.42,-17.47 -22.81,-22.6l-0.24 23.08z"/>
  <polygon class="fil15" points="879.01,353.74 917.07,353.76 917.05,347.3 879.39,347.29 "/>
  <path class="fil14" d="M1099.91 481.96l-31.66 18.57 27.45 46.43c12.64,21.52 -10.83,30.23 -33.29,43.44l-32.79 19.32c-24.75,14.53 -30.91,-5.56 -45.04,-29.47l-13.34 -22.55 -42.76 25.2c-11.54,6.8 -19.56,9.98 -28.72,1.5 -9.86,-9.13 -5.18,-20.13 -3.05,-28.43 4.91,-19.07 9.52,-35.9 13.89,-53.91l21.39 -80.39c1.81,-7.16 2.88,-20.66 16.24,-24.1 7.46,-1.93 20.65,2.83 27.22,4.53 44.37,11.48 90.38,22.81 134.39,34.9 9.12,2.5 18.77,10.62 15.93,22.75 -2.63,11.29 -14.57,15.57 -25.83,22.21z"/>
  <g style="clip-path:url(#id5)">
   <g id="_2037933370848">
    <polygon id="_1_2" class="fil16" points="936.66,388.65 1067.14,610.09 941.87,683.9 819.05,475.46 "/>
   </g>
  </g>
  <path class="fil3" d="M1099.91 481.96l-31.66 18.57 27.45 46.43c12.64,21.52 -10.83,30.23 -33.29,43.44l-32.79 19.32c-24.75,14.53 -30.91,-5.56 -45.04,-29.47l-13.34 -22.55 -42.76 25.2c-11.54,6.8 -19.56,9.98 -28.72,1.5 -9.86,-9.13 -5.18,-20.13 -3.05,-28.43 4.91,-19.07 9.52,-35.9 13.89,-53.91l21.39 -80.39c1.81,-7.16 2.88,-20.66 16.24,-24.1 7.46,-1.93 20.65,2.83 27.22,4.53 44.37,11.48 90.38,22.81 134.39,34.9 9.12,2.5 18.77,10.62 15.93,22.75 -2.63,11.29 -14.57,15.57 -25.83,22.21z"/>
 </g>
</svg>
